<svg width="43" height="42" viewBox="0 0 43 42" fill="none" xmlns="http://www.w3.org/2000/svg">
<mask id="mask0_401_752" style="mask-type:alpha" maskUnits="userSpaceOnUse" x="0" y="0" width="197" height="42">
<path d="M20.3259 16.1704C23.0376 16.1704 25.1938 18.342 25.1938 20.9997C25.1938 23.6574 23.0049 25.8289 20.3259 25.8289C17.647 25.8289 15.4581 23.6574 15.4581 20.9997C15.4581 18.342 17.6143 16.1704 20.3259 16.1704ZM20.3259 0.645508C10.7862 0.645508 2.74928 7.12772 0.462358 15.9111C0.429688 15.9759 0.429688 16.0732 0.429688 16.138C0.429688 16.6566 0.854402 17.1103 1.4098 17.1103H9.6754C10.0674 17.1103 10.3942 16.8835 10.5575 16.5593V16.5269C12.2564 12.8645 15.9808 10.3364 20.2933 10.3364C26.2393 10.3364 31.0418 15.1008 31.0418 20.9997C31.0418 26.8985 26.2393 31.6629 20.2933 31.6629C15.9808 31.6629 12.2564 29.1348 10.5575 25.4724L10.5248 25.44C10.3615 25.0835 10.0348 24.889 9.64273 24.889H1.4098C0.854402 24.889 0.429688 25.3103 0.429688 25.8613C0.429688 25.9586 0.429688 26.0234 0.462358 26.0882C2.74928 34.8716 10.7535 41.3538 20.3259 41.3538C31.6626 41.3538 40.8429 32.2463 40.8429 20.9997C40.8429 9.75302 31.6299 0.645508 20.3259 0.645508ZM73.938 25.7641H71.161C70.965 25.7641 70.8017 25.8613 70.671 25.991C69.0375 28.357 66.3258 29.9127 63.1895 29.9127C58.2236 29.9127 54.1725 25.8937 54.1725 20.9673C54.1725 16.0408 58.1909 12.0218 63.1895 12.0218C66.2932 12.0218 69.0375 13.5775 70.671 15.9759C70.769 16.138 70.965 16.2028 71.161 16.2028H73.938C74.2647 16.2028 74.5261 15.9435 74.5261 15.6194C74.5261 15.5222 74.4934 15.425 74.4608 15.3601C72.3699 11.2763 68.1227 8.48898 63.1895 8.48898C56.2307 8.48898 50.5787 14.0961 50.5787 20.9997C50.5787 27.9032 56.2307 33.5103 63.1895 33.5103C68.1227 33.5103 72.3699 30.723 74.4608 26.6392C74.4934 26.542 74.5261 26.4771 74.5261 26.3799C74.5261 26.0234 74.2647 25.7641 73.938 25.7641ZM82.3343 4.30796C82.3343 5.63681 81.2562 6.70637 79.9167 6.70637C78.5772 6.70637 77.4991 5.63681 77.4991 4.30796C77.4991 2.9791 78.5772 1.90954 79.9167 1.90954C81.2562 1.90954 82.3343 2.9791 82.3343 4.30796ZM81.7462 32.3111V9.07239H78.1525V32.3111C78.1525 32.6352 78.4139 32.8945 78.7406 32.8945H81.1582C81.4522 32.9269 81.7462 32.6677 81.7462 32.3111ZM97.3627 8.48898C93.7363 8.65104 90.8286 10.3688 88.9337 13.0265V9.6882C88.9337 9.36409 88.6724 9.10479 88.3457 9.10479H85.9281C85.6014 9.10479 85.34 9.36409 85.34 9.6882V32.3435C85.34 32.6677 85.6014 32.9269 85.9281 32.9269H88.3457C88.6724 32.9269 88.9337 32.6677 88.9337 32.3435V21.0321C88.9337 16.3001 92.6581 12.4107 97.33 12.119C97.6567 12.119 97.9181 11.8597 97.9181 11.5356V9.13721C97.9508 8.78068 97.6894 8.48898 97.3627 8.48898ZM121.31 25.7641H118.533C118.337 25.7641 118.174 25.8613 118.043 25.991C116.41 28.357 113.698 29.9127 110.562 29.9127C105.596 29.9127 101.544 25.8937 101.544 20.9673C101.544 16.0408 105.563 12.0218 110.562 12.0218C113.665 12.0218 116.41 13.5775 118.043 15.9759C118.141 16.138 118.337 16.2028 118.533 16.2028H121.31C121.637 16.2028 121.898 15.9435 121.898 15.6194C121.898 15.5222 121.865 15.425 121.833 15.3601C119.742 11.2763 115.495 8.48898 110.562 8.48898C103.603 8.48898 97.9508 14.0961 97.9508 20.9997C97.9508 27.9032 103.603 33.5103 110.562 33.5103C115.495 33.5103 119.742 30.723 121.833 26.6392C121.865 26.542 121.898 26.4771 121.898 26.3799C121.898 26.0234 121.637 25.7641 121.31 25.7641ZM128.53 1.32613H126.113C125.786 1.32613 125.525 1.58543 125.525 1.90954V32.3111C125.525 32.6352 125.786 32.8945 126.113 32.8945H128.53C128.857 32.8945 129.118 32.6352 129.118 32.3111V1.90954C129.118 1.58543 128.857 1.32613 128.53 1.32613ZM145.323 8.48898C138.364 8.48898 132.712 14.0961 132.712 20.9997C132.712 27.9032 138.364 33.5103 145.323 33.5103C150.256 33.5103 154.503 30.723 156.594 26.6392C156.757 26.3475 156.627 25.991 156.333 25.8289C156.235 25.7965 156.137 25.7641 156.039 25.7641H153.262C153.066 25.7641 152.902 25.8613 152.772 26.0234C151.138 28.3894 148.426 29.9451 145.323 29.9451C140.749 29.9451 136.992 26.5744 136.404 22.1989H157.345C157.672 22.1989 157.934 21.9396 157.934 21.6479C157.934 21.4534 157.966 21.2265 157.966 21.0321C157.966 14.0961 152.314 8.48898 145.323 8.48898ZM136.665 18.6012C137.711 14.8091 141.206 12.0542 145.355 12.0542C149.505 12.0542 153 14.8416 154.046 18.6012H136.665ZM192.858 0.742737C190.865 0.742737 189.264 2.33088 189.264 4.30796C189.264 6.28503 190.865 7.87318 192.858 7.87318C194.851 7.87318 196.452 6.28503 196.452 4.30796C196.452 2.33088 194.851 0.742737 192.858 0.742737ZM195.864 9.07239V32.3111C195.864 32.6352 195.603 32.8945 195.276 32.8945H190.473C190.147 32.8945 189.885 32.6352 189.885 32.3111V9.07239H195.864ZM174.171 33.5103C180.051 33.5103 185.017 29.4914 186.389 24.1111C186.389 24.0787 186.389 24.0463 186.389 23.9815C186.389 23.6574 186.128 23.3981 185.801 23.3981H180.705C180.476 23.3981 180.247 23.5277 180.149 23.7546C179.104 26.0234 176.817 27.5791 174.138 27.5791C170.479 27.5791 167.539 24.6297 167.539 21.0321C167.539 17.4344 170.512 14.485 174.138 14.485C176.719 14.485 179.071 15.9759 180.149 18.3095C180.247 18.5364 180.443 18.6661 180.705 18.6661H185.801C186.128 18.6661 186.389 18.4068 186.389 18.0827C186.389 18.0503 186.389 18.0178 186.389 17.953C184.985 12.5404 180.051 8.5214 174.171 8.5214C167.212 8.5214 161.56 14.1285 161.56 21.0321C161.56 27.9032 167.212 33.5103 174.171 33.5103Z" fill="white"/>
</mask>
<g mask="url(#mask0_401_752)">
<rect x="-2.35938" y="-5.66699" width="45.36" height="55" fill="white"/>
</g>
</svg>
