<svg width="520" height="340" viewBox="0 0 520 340" fill="none" xmlns="http://www.w3.org/2000/svg">
  <defs>
    <linearGradient id="featBarGrad" x1="0" y1="0" x2="0" y2="1">
      <stop offset="0%" stop-color="#635BFF"/>
      <stop offset="100%" stop-color="#8B85FF"/>
    </linearGradient>
    <filter id="s6Shadow" x="-4%" y="-4%" width="108%" height="112%">
      <feDropShadow dx="0" dy="4" stdDeviation="12" flood-color="#0A2540" flood-opacity="0.08"/>
    </filter>
  </defs>

  <!-- Card -->
  <rect width="520" height="340" rx="14" fill="#FFFFFF" filter="url(#s6Shadow)"/>
  <rect x="0.5" y="0.5" width="519" height="339" rx="13.5" stroke="#E3E8EF" stroke-width="1"/>

  <!-- Top bar -->
  <rect x="0" y="0" width="520" height="56" rx="14" fill="#FAFBFC"/>
  <rect x="0" y="42" width="520" height="14" fill="#FAFBFC"/>
  <line x1="0" y1="56" x2="520" y2="56" stroke="#E3E8EF" stroke-width="1"/>
  <text x="24" y="35" font-family="system-ui, -apple-system, sans-serif" font-size="13" font-weight="600" fill="#0A2540">Weekly Output</text>
  <rect x="410" y="16" rx="8" width="90" height="24" fill="#F0EEFF"/>
  <text x="455" y="33" font-family="system-ui, -apple-system, sans-serif" font-size="11" font-weight="600" fill="#635BFF" text-anchor="middle">Week 4</text>

  <!-- Metric -->
  <text x="24" y="92" font-family="system-ui, -apple-system, sans-serif" font-size="11" font-weight="500" letter-spacing="0.5" fill="#8792A2">FEATURES SHIPPED</text>
  <text x="24" y="124" font-family="system-ui, -apple-system, sans-serif" font-size="34" font-weight="700" fill="#0A2540">14</text>
  <text x="65" y="124" font-family="system-ui, -apple-system, sans-serif" font-size="13" font-weight="500" fill="#8792A2">features in 4 weeks</text>

  <!-- Submetrics -->
  <circle cx="30" cy="146" r="4" fill="#635BFF"/>
  <text x="40" y="150" font-family="system-ui, -apple-system, sans-serif" font-size="11" font-weight="500" fill="#0A2540">3.5 avg/week</text>
  <circle cx="150" cy="146" r="4" fill="#16A34A"/>
  <text x="160" y="150" font-family="system-ui, -apple-system, sans-serif" font-size="11" font-weight="500" fill="#0A2540">100% tested</text>
  <circle cx="270" cy="146" r="4" fill="#FF7B5C"/>
  <text x="280" y="150" font-family="system-ui, -apple-system, sans-serif" font-size="11" font-weight="500" fill="#0A2540">0 regressions</text>

  <!-- Bar chart -->
  <line x1="40" y1="296" x2="496" y2="296" stroke="#E3E8EF" stroke-width="1"/>

  <!-- Grid lines -->
  <line x1="40" y1="182" x2="496" y2="182" stroke="#F0F2F5" stroke-width="1"/>
  <line x1="40" y1="220" x2="496" y2="220" stroke="#F0F2F5" stroke-width="1"/>
  <line x1="40" y1="258" x2="496" y2="258" stroke="#F0F2F5" stroke-width="1"/>

  <!-- Y-axis labels -->
  <text x="32" y="186" font-family="system-ui, -apple-system, sans-serif" font-size="8" fill="#8792A2" text-anchor="end">5</text>
  <text x="32" y="224" font-family="system-ui, -apple-system, sans-serif" font-size="8" fill="#8792A2" text-anchor="end">4</text>
  <text x="32" y="262" font-family="system-ui, -apple-system, sans-serif" font-size="8" fill="#8792A2" text-anchor="end">2</text>
  <text x="32" y="300" font-family="system-ui, -apple-system, sans-serif" font-size="8" fill="#8792A2" text-anchor="end">0</text>

  <!-- Week 1 bars -->
  <rect x="60" y="258" width="36" height="38" rx="4" fill="#E3E8EF"/>
  <rect x="100" y="248" width="36" height="48" rx="4" fill="url(#featBarGrad)"/>
  <text x="80" y="312" font-family="system-ui, -apple-system, sans-serif" font-size="9" fill="#8792A2" text-anchor="middle">Wk 1</text>
  <text x="118" y="242" font-family="system-ui, -apple-system, sans-serif" font-size="10" font-weight="600" fill="#635BFF" text-anchor="middle">2</text>

  <!-- Week 2 bars -->
  <rect x="170" y="248" width="36" height="48" rx="4" fill="#E3E8EF"/>
  <rect x="210" y="224" width="36" height="72" rx="4" fill="url(#featBarGrad)"/>
  <text x="195" y="312" font-family="system-ui, -apple-system, sans-serif" font-size="9" fill="#8792A2" text-anchor="middle">Wk 2</text>
  <text x="228" y="218" font-family="system-ui, -apple-system, sans-serif" font-size="10" font-weight="600" fill="#635BFF" text-anchor="middle">3</text>

  <!-- Week 3 bars -->
  <rect x="280" y="240" width="36" height="56" rx="4" fill="#E3E8EF"/>
  <rect x="320" y="210" width="36" height="86" rx="4" fill="url(#featBarGrad)"/>
  <text x="310" y="312" font-family="system-ui, -apple-system, sans-serif" font-size="9" fill="#8792A2" text-anchor="middle">Wk 3</text>
  <text x="338" y="204" font-family="system-ui, -apple-system, sans-serif" font-size="10" font-weight="600" fill="#635BFF" text-anchor="middle">4</text>

  <!-- Week 4 bars -->
  <rect x="390" y="234" width="36" height="62" rx="4" fill="#E3E8EF"/>
  <rect x="430" y="182" width="36" height="114" rx="4" fill="url(#featBarGrad)"/>
  <text x="425" y="312" font-family="system-ui, -apple-system, sans-serif" font-size="9" fill="#8792A2" text-anchor="middle">Wk 4</text>
  <text x="448" y="176" font-family="system-ui, -apple-system, sans-serif" font-size="10" font-weight="600" fill="#635BFF" text-anchor="middle">5</text>

  <!-- Legend -->
  <rect x="60" y="326" width="10" height="10" rx="2" fill="#E3E8EF"/>
  <text x="76" y="335" font-family="system-ui, -apple-system, sans-serif" font-size="10" fill="#8792A2">Traditional pace</text>
  <rect x="190" y="326" width="10" height="10" rx="2" fill="url(#featBarGrad)"/>
  <text x="206" y="335" font-family="system-ui, -apple-system, sans-serif" font-size="10" fill="#0A2540">AI Sprint output</text>
</svg>
