<svg width="38" height="38" viewBox="0 0 38 38" fill="none" xmlns="http://www.w3.org/2000/svg">
<rect width="38" height="38" rx="19" fill="#020617"/>
<path d="M12.125 16C12.8555 16 13.5 16.6445 13.5 17.375V26.9141C13.5 27.6445 12.8555 28.2461 12.125 28.2461H9.375C8.60156 28.2461 8 27.6445 8 26.9141V17.332C8 16.6016 8.60156 16 9.375 16H12.125ZM30 17.5039C30 18.5352 29.4414 19.3945 28.668 19.9102C28.7109 20.168 28.7539 20.3828 28.7539 20.5977C28.7539 21.5859 28.2383 22.4453 27.5078 22.9609C27.5078 23.0898 27.5078 23.2188 27.5078 23.3477C27.5078 24.3359 27.0352 25.1953 26.2617 25.7109C26.1758 27.2148 24.9297 28.375 23.4258 28.375H21.1484C19.6016 28.375 18.0977 27.9023 16.8516 26.957L15.2617 25.7969C15.0039 25.582 14.832 25.2812 14.832 24.9375C14.832 24.4219 15.3047 23.9062 15.9062 23.9062C16.1211 23.9062 16.3359 23.9922 16.5078 24.1211L18.0977 25.3242C18.957 25.9688 20.0312 26.3555 21.1484 26.3555H23.4258C23.8555 26.3555 24.2422 25.9688 24.2422 25.5391C24.2422 25.3672 24.1562 25.3242 24.1562 25.1094C24.1562 23.9492 25.4453 24.3359 25.4453 23.3477C25.4453 22.9609 25.1875 22.875 25.1875 22.4023C25.1875 21.1133 26.6914 21.6719 26.6914 20.5977C26.6914 20.0391 26.1758 20.0391 26.1758 19.3516C26.1758 18.8359 26.6055 18.3633 27.1641 18.3203C27.5938 18.3203 27.9375 17.9336 27.9375 17.5039C27.9375 17.0742 27.5508 16.7305 27.0781 16.6875H21.1914C20.6328 16.6875 20.1602 16.3008 20.1602 15.6992C20.1602 15.5273 20.2031 15.3555 20.2891 15.1836C21.0625 13.8086 21.4062 12.4336 21.4062 12.0898C21.4062 11.7461 21.1484 11.2305 20.418 11.2305C19 11.2305 19.8164 13.8516 16.5078 16.4727C16.3359 16.6445 16.1211 16.6875 15.9062 16.6875C15.3047 16.6875 14.875 16.2148 14.875 15.6562C14.875 14.4961 16.0781 15.1406 17.4531 11.6602C17.8828 10.543 18.4414 9.16797 20.418 9.16797C22.3086 9.16797 23.4688 10.6289 23.4688 12.0898C23.4688 12.6484 23.2109 13.5938 22.8242 14.668H27.1211C28.668 14.668 30 15.957 30 17.5039Z" fill="white"/>
</svg>
