<svg width="35" height="34" viewBox="0 0 35 34" fill="none" xmlns="http://www.w3.org/2000/svg">
<rect width="35" height="34" rx="17" fill="#020617"/>
<path d="M11.9414 12.4688C12.2578 12.8203 12.2578 13.3477 11.9062 13.6641L8.07422 17.25L11.8711 20.8711C12.2227 21.1875 12.2227 21.7148 11.9062 22.0664C11.7305 22.2422 11.5195 22.3125 11.3086 22.3125C11.1328 22.3125 10.9219 22.2422 10.7461 22.1016L6.24609 17.8828C6.07031 17.707 6 17.4961 6 17.25C6 17.0391 6.07031 16.793 6.24609 16.6523L10.7461 12.4336C11.0977 12.1172 11.625 12.1172 11.9414 12.4688ZM19.7109 8.28516C20.168 8.42578 20.4141 8.88281 20.3086 9.33984L15.8086 25.6523C15.7031 26.0391 15.3516 26.25 15 26.25C14.8945 26.25 14.8242 26.25 14.7539 26.25C14.2969 26.1094 14.0508 25.6523 14.1562 25.1953L18.6562 8.88281C18.7969 8.42578 19.2539 8.17969 19.7109 8.28516ZM28.2188 16.6523C28.3945 16.793 28.5 17.0391 28.5 17.25C28.5 17.4961 28.3945 17.707 28.2188 17.8828L23.7188 22.1016C23.543 22.2422 23.332 22.3125 23.1562 22.3125C22.9102 22.3125 22.6992 22.2422 22.5234 22.0664C22.207 21.7148 22.207 21.1875 22.5586 20.8711L26.3906 17.25L22.5586 13.6641C22.207 13.3477 22.207 12.8203 22.5234 12.4688C22.8398 12.1172 23.3672 12.1172 23.7188 12.4336L28.2188 16.6523Z" fill="white"/>
</svg>
