<svg width="36" height="36" viewBox="0 0 36 36" fill="none" xmlns="http://www.w3.org/2000/svg">
<rect width="36" height="36" rx="18" fill="#020617"/>
<path d="M8 12.2891C8 11.5078 8.58594 11 9.25 11C9.52344 11 9.79688 11.1172 10.0312 11.3125L16.75 17.4062V12.2891C16.75 11.5078 17.3359 11 18 11C18.2734 11 18.5469 11.1172 18.8203 11.3516L25.5 17.4453V11.9766C25.5 11.4688 25.9297 11.0391 26.4375 11.0391C26.9453 11.0391 27.375 11.4297 27.375 11.9766V25.0625C27.375 25.6094 26.9453 26 26.4375 26C25.8906 26 25.5 25.6094 25.5 25.0625V19.6719L18.7812 25.7266C18.5469 25.9219 18.2734 26 18 26C17.3359 26 16.75 25.5312 16.75 24.75V19.6719L10.0312 25.7266C9.79688 25.9219 9.52344 26 9.25 26C8.58594 26 8 25.5312 8 24.75V12.2891ZM18.625 13.6953V23.3438L23.9375 18.5391L18.625 13.6953ZM9.875 13.6953V23.3438L15.1875 18.5391L9.875 13.6953Z" fill="white"/>
</svg>
