<svg width="46" height="46" viewBox="0 0 46 46" fill="none" xmlns="http://www.w3.org/2000/svg">
<circle cx="23" cy="23" r="23" fill="#FFEDD5"/>
<path d="M17.125 25.875L14.625 25.875C13.6094 25.875 12.75 25.0547 12.75 24L12.75 21.5C12.75 20.4844 13.6094 19.625 14.625 19.625L17.125 19.625C18.1797 19.625 19 20.4844 19 21.5L19 22.125L20.875 22.125L20.875 15.875C20.875 14.8594 21.7344 14 22.75 14L24 14L24 13.375C24 12.3594 24.8594 11.5 25.875 11.5L28.375 11.5C29.4297 11.5 30.25 12.3594 30.25 13.375L30.25 15.875C30.25 16.9297 29.4297 17.75 28.375 17.75L25.875 17.75C24.8594 17.75 24 16.9297 24 15.875L24 15.25L22.75 15.25C22.4375 15.25 22.125 15.5625 22.125 15.875L22.125 22.125L24 22.125L24 21.5C24 20.4844 24.8594 19.625 25.875 19.625L28.375 19.625C29.4297 19.625 30.25 20.4844 30.25 21.5L30.25 24C30.25 25.0547 29.4297 25.875 28.375 25.875L25.875 25.875C24.8594 25.875 24 25.0547 24 24L24 23.375L22.125 23.375L22.125 29.625C22.125 29.9766 22.4375 30.25 22.75 30.25L24 30.25L24 29.625C24 28.6094 24.8594 27.75 25.875 27.75L28.375 27.75C29.4297 27.75 30.25 28.6094 30.25 29.625L30.25 32.125C30.25 33.1797 29.4297 34 28.375 34L25.875 34C24.8594 34 24 33.1797 24 32.125L24 31.5L22.75 31.5C21.7344 31.5 20.875 30.6797 20.875 29.625L20.875 23.375L19 23.375L19 24C19 25.0547 18.1797 25.875 17.125 25.875ZM14 21.5L14 24C14 24.3516 14.3125 24.625 14.625 24.625L17.125 24.625C17.4766 24.625 17.75 24.3516 17.75 24L17.75 21.5C17.75 21.1875 17.4766 20.875 17.125 20.875L14.625 20.875C14.3125 20.875 14 21.1875 14 21.5ZM25.875 32.75L28.375 32.75C28.7266 32.75 29 32.4766 29 32.125L29 29.625C29 29.3125 28.7266 29 28.375 29L25.875 29C25.5625 29 25.25 29.3125 25.25 29.625L25.25 32.125C25.25 32.4766 25.5625 32.75 25.875 32.75ZM25.875 24.625L28.375 24.625C28.7266 24.625 29 24.3516 29 24L29 21.5C29 21.1875 28.7266 20.875 28.375 20.875L25.875 20.875C25.5625 20.875 25.25 21.1875 25.25 21.5L25.25 24C25.25 24.3516 25.5625 24.625 25.875 24.625ZM25.875 16.5L28.375 16.5C28.7266 16.5 29 16.2266 29 15.875L29 13.375C29 13.0625 28.7266 12.75 28.375 12.75L25.875 12.75C25.5625 12.75 25.25 13.0625 25.25 13.375L25.25 15.875C25.25 16.2266 25.5625 16.5 25.875 16.5Z" fill="#020617"/>
</svg>
