<svg width="35" height="28" viewBox="0 0 35 28" fill="none" xmlns="http://www.w3.org/2000/svg">
<path d="M0.941464 9.94914L0.941269 9.94893C0.729072 9.7232 0.688918 9.38498 0.843465 9.11618M0.941464 9.94914L5.22424 1.9872C5.3053 1.84656 5.45533 1.75977 5.61775 1.75977H7.80682C8.05729 1.75977 8.26055 1.96274 8.26055 2.21349C8.26055 2.46396 8.05729 2.66722 7.80682 2.66722H5.88029M0.941464 9.94914L17.0341 27.0294L0.941464 9.94914ZM0.843465 9.11618L1.0602 9.24079L0.843382 9.11633L0.843465 9.11618ZM0.843465 9.11618L5.00742 1.86274L5.00764 1.86235C5.1333 1.64436 5.36587 1.50977 5.61775 1.50977H7.80682C8.19526 1.50977 8.51055 1.82456 8.51055 2.21349C8.51055 2.60204 8.19537 2.91722 7.80682 2.91722H6.02504M6.02504 2.91722L6.0971 2.79169L5.88029 2.66722M6.02504 2.91722L2.32404 9.36383L17.5446 25.5185M6.02504 2.91722H5.88029V2.66722M5.88029 2.66722L2.01487 9.40024L17.5446 25.5185M17.5446 25.5185L32.6243 9.38478L28.4983 2.91722H17.4824C17.0939 2.91722 16.7787 2.60205 16.7787 2.21349C16.7787 1.82455 17.094 1.50977 17.4824 1.50977H28.884C29.1245 1.50977 29.3479 1.63227 29.4773 1.83483L29.4774 1.83493L34.1048 9.08791L34.1049 9.08808C34.2775 9.35907 34.245 9.71186 34.0258 9.94696L34.0256 9.9472L18.0604 27.0276L18.0602 27.0279C17.9267 27.1703 17.732 27.2519 17.5453 27.2503M17.5446 25.5185L17.0343 27.0296C17.1674 27.1711 17.3528 27.2499 17.5453 27.2503M17.5453 27.2503C17.5448 27.2503 17.5444 27.2503 17.544 27.2503L17.5466 27.0003V27.2503C17.5461 27.2503 17.5457 27.2503 17.5453 27.2503Z" fill="#F97316" stroke="#F97316" stroke-width="0.5"/>
<path d="M13.1659 1.90746C12.9971 1.90746 12.8601 2.04451 12.8601 2.21299C12.8601 2.38117 12.9971 2.51819 13.1659 2.51819C13.3341 2.51819 13.4711 2.38117 13.4711 2.21299C13.4711 2.04451 13.3341 1.90746 13.1659 1.90746ZM13.1659 3.42565C12.4968 3.42565 11.9526 2.88176 11.9526 2.21299C11.9526 1.54418 12.4968 1 13.1659 1C13.8347 1 14.3785 1.54418 14.3785 2.21299C14.3785 2.88176 13.8347 3.42565 13.1659 3.42565Z" fill="#F97316" stroke="#F97316" stroke-width="0.5"/>
<path d="M7.43911 2.70658L7.43907 2.70654C7.16644 2.43014 7.16832 1.98479 7.44541 1.71148L7.43911 2.70658ZM7.43911 2.70658L24.0531 19.5429M7.43911 2.70658L24.0531 19.5429M24.0531 19.5429C24.1905 19.6822 24.3728 19.7525 24.5541 19.7525M24.0531 19.5429L24.5541 19.7525M24.5541 19.7525C24.7323 19.7525 24.9112 19.6849 25.0481 19.5495C25.325 19.2765 25.3279 18.8307 25.0547 18.5542L8.44055 1.71805C8.44054 1.71804 8.44053 1.71804 8.44052 1.71803M24.5541 19.7525L8.44052 1.71803M8.44052 1.71803C8.1672 1.441 7.7213 1.43931 7.44546 1.71143L8.44052 1.71803Z" fill="#F97316" stroke="#F97316" stroke-width="0.5"/>
</svg>
