<svg width="131" height="35" viewBox="0 0 131 35" fill="none" xmlns="http://www.w3.org/2000/svg">
<g clip-path="url(#clip0_163_259)">
<mask id="mask0_163_259" style="mask-type:luminance" maskUnits="userSpaceOnUse" x="0" y="0" width="131" height="35">
<path d="M131 0H0V35H131V0Z" fill="white"/>
</mask>
<g mask="url(#mask0_163_259)">
<mask id="mask1_163_259" style="mask-type:alpha" maskUnits="userSpaceOnUse" x="0" y="0" width="35" height="35">
<path fill-rule="evenodd" clip-rule="evenodd" d="M0 0H34.9995V35H0V0Z" fill="white"/>
</mask>
<g mask="url(#mask1_163_259)">
<path fill-rule="evenodd" clip-rule="evenodd" d="M23.3331 29.1667C16.89 29.1667 11.6665 23.9432 11.6665 17.5C11.6665 11.0569 16.89 5.83335 23.3331 5.83335C29.776 5.83335 34.9995 11.0569 34.9995 17.5C34.9995 7.83495 27.1647 0 17.4998 0C7.83484 0 0 7.83495 0 17.5C0 27.1651 7.83484 35 17.4998 35C27.1647 35 34.9995 27.1651 34.9995 17.5C34.9995 23.9432 29.776 29.1667 23.3331 29.1667Z" fill="white"/>
</g>
<path fill-rule="evenodd" clip-rule="evenodd" d="M17.498 27.6018C19.2146 28.5954 21.2053 29.1663 23.3312 29.1663C29.7743 29.1663 34.9978 23.9432 34.9978 17.4997C34.9978 11.0565 29.7743 5.83301 23.3312 5.83301C21.2053 5.83301 19.2146 6.40466 17.498 7.39789C20.9844 9.41505 23.3312 13.1822 23.3312 17.4997C23.3312 21.8175 20.9844 25.5847 17.498 27.6018Z" fill="white"/>
<path fill-rule="evenodd" clip-rule="evenodd" d="M70.8737 6.07012C70.8737 5.75541 70.9635 5.50817 71.143 5.32834C71.3224 5.14851 71.5693 5.05859 71.8834 5.05859H74.8112C75.1254 5.05859 75.3721 5.14851 75.5515 5.32834C75.7309 5.50817 75.8208 5.75541 75.8208 6.07012V13.2183C75.8208 13.5555 75.8881 13.724 76.0227 13.724C76.1349 13.724 76.2807 13.6341 76.4603 13.4543C76.9986 12.8924 77.6492 12.454 78.4122 12.1393C79.1748 11.8246 80.0275 11.6672 80.9698 11.6672C81.9345 11.6672 82.8039 11.8134 83.5778 12.1056C84.3519 12.3978 85.0137 12.8136 85.5635 13.3531C86.1131 13.8926 86.5394 14.5445 86.8423 15.3087C87.1452 16.073 87.2965 16.9272 87.2965 17.8713V27.9192C87.2965 28.2338 87.2068 28.4811 87.0274 28.6609C86.8479 28.8407 86.6011 28.9307 86.287 28.9307H83.3929C83.0786 28.9307 82.832 28.8407 82.6524 28.6609C82.4729 28.4811 82.3832 28.2338 82.3832 27.9192V19.1526C82.3832 18.2085 82.1139 17.4555 81.5755 16.8935C81.037 16.3316 80.308 16.0506 79.3881 16.0506C78.199 16.0506 77.3072 16.5226 76.7126 17.4666C76.1181 18.4107 75.8208 19.7594 75.8208 21.5129V27.9192C75.8208 28.2338 75.7309 28.4811 75.5515 28.6609C75.3721 28.8407 75.1254 28.9307 74.8112 28.9307H71.8834C71.5693 28.9307 71.3224 28.8407 71.143 28.6609C70.9635 28.4811 70.8737 28.2338 70.8737 27.9192V6.07012ZM45.1629 26.3005C45.3199 25.7386 45.7462 25.4575 46.4418 25.4575C47.0923 25.4351 47.6084 25.2834 47.9898 25.0024C48.3712 24.7215 48.562 24.3448 48.562 23.8728C48.562 23.4233 48.3376 23.0805 47.8889 22.8445C47.4402 22.6084 46.8847 22.4006 46.2229 22.2208C45.5612 22.041 44.8431 21.8442 44.0692 21.6306C43.2951 21.4171 42.5773 21.1136 41.9153 20.7203C41.2535 20.3268 40.6983 19.8043 40.2495 19.1524C39.8008 18.5006 39.5764 17.6352 39.5764 16.5562C39.5764 15.8818 39.7166 15.2524 39.997 14.6679C40.2775 14.0835 40.6815 13.5665 41.2086 13.117C41.7359 12.6674 42.3697 12.3133 43.1101 12.0549C43.8504 11.7963 44.6918 11.6671 45.6341 11.6671C47.1597 11.6671 48.517 11.9593 49.7061 12.5438C50.8952 13.1282 51.7702 13.9149 52.3311 14.904C52.4881 15.1512 52.5162 15.3985 52.4152 15.6457C52.3143 15.8931 52.1179 16.0729 51.8263 16.1853L49.7061 17.0619C49.5715 17.1293 49.4257 17.1631 49.2685 17.1631C48.9322 17.1631 48.6292 16.9607 48.3599 16.5562C48.0459 16.1066 47.6532 15.7694 47.1821 15.5445C46.7109 15.3198 46.251 15.2075 45.8023 15.2075C45.2414 15.2075 44.787 15.3142 44.4393 15.5278C44.0916 15.7414 43.9176 16.0392 43.9176 16.4213C43.9176 16.8709 44.1421 17.208 44.5908 17.4328C45.0395 17.6576 45.6004 17.8487 46.2735 18.006C46.9465 18.1634 47.6813 18.3375 48.4778 18.5287C49.2742 18.7198 50.009 19.0119 50.682 19.4053C51.3551 19.7988 51.916 20.3382 52.3648 21.0238C52.8135 21.7093 53.0378 22.6253 53.0378 23.7717C53.0378 24.5136 52.8751 25.2104 52.5498 25.8622C52.2244 26.5141 51.7702 27.0872 51.1868 27.5819C50.6036 28.0763 49.9024 28.4697 49.0835 28.7618C48.2645 29.0541 47.3616 29.2002 46.3744 29.2002H45.8695C45.7126 29.2002 45.5443 29.189 45.3647 29.1665C45.0732 29.1216 44.8599 28.9979 44.7254 28.7957C44.5908 28.5934 44.5683 28.3348 44.6582 28.0201L45.1629 26.3005ZM40.8888 29.2004C40.0586 29.2004 39.3631 28.925 38.8022 28.3742C38.2413 27.8235 37.9609 27.1435 37.9609 26.3343C37.9609 25.5026 38.2413 24.8115 38.8022 24.2608C39.3631 23.71 40.0586 23.4347 40.8888 23.4347C41.7188 23.4347 42.4144 23.71 42.9752 24.2608C43.5361 24.8115 43.8166 25.5026 43.8166 26.3343C43.8166 27.1435 43.5361 27.8235 42.9752 28.3742C42.4144 28.925 41.7188 29.2004 40.8888 29.2004ZM66.8017 27.9191C68.1927 27.0648 69.1351 25.8847 69.6286 24.3787C69.7183 24.0864 69.696 23.8335 69.5614 23.6199C69.4267 23.4064 69.2024 23.266 68.8882 23.1986L66.0277 22.6253C65.6912 22.6253 65.4332 22.6647 65.2538 22.7433C65.0741 22.822 64.8947 23.03 64.7153 23.367C64.446 23.8841 64.0702 24.2831 63.5878 24.564C63.1054 24.845 62.5277 24.9856 61.8548 24.9856C60.7105 24.9856 59.7907 24.5754 59.0951 23.7549C58.3996 22.9343 58.0519 21.8273 58.0519 20.4336C58.0519 19.04 58.3941 17.933 59.0783 17.1125C59.7626 16.2921 60.688 15.8818 61.8548 15.8818C62.5502 15.8818 63.1559 16.0392 63.672 16.3539C64.188 16.6685 64.5693 17.1068 64.8162 17.6689C64.9956 18.006 65.1696 18.2195 65.3378 18.3095C65.5061 18.3994 65.7586 18.4443 66.095 18.4443L68.9219 17.9048C69.236 17.8375 69.4659 17.697 69.6118 17.4834C69.7576 17.2699 69.7857 17.017 69.696 16.7247C69.2473 15.1287 68.3162 13.8869 66.9027 12.999C65.4892 12.1111 63.7393 11.6671 61.6527 11.6671C60.374 11.6671 59.2016 11.8806 58.1359 12.3077C57.0703 12.7349 56.1561 13.3361 55.3933 14.1117C54.6304 14.8871 54.0359 15.8145 53.6096 16.8933C53.1833 17.9722 52.9703 19.1524 52.9703 20.4336C52.9703 21.715 53.1833 22.895 53.6096 23.974C54.0359 25.053 54.6304 25.9802 55.3933 26.7557C56.1561 27.5311 57.0703 28.1326 58.1359 28.5597C59.2016 28.9867 60.374 29.2002 61.6527 29.2002C63.6945 29.2002 65.4107 28.7732 66.8017 27.9191ZM93.6236 28.5428C94.723 28.981 95.9233 29.2002 97.2245 29.2002C98.5258 29.2002 99.7203 28.981 100.809 28.5428C101.897 28.1044 102.839 27.4975 103.635 26.7221C104.432 25.9465 105.054 25.0193 105.503 23.9403C105.952 22.8613 106.176 21.6924 106.176 20.4336C106.176 19.1749 105.952 18.006 105.503 16.927C105.054 15.8481 104.432 14.9208 103.635 14.1454C102.839 13.3699 101.897 12.763 100.809 12.3246C99.7203 11.8863 98.5258 11.6671 97.2245 11.6671C95.9233 11.6671 94.723 11.8863 93.6236 12.3246C92.5243 12.763 91.5764 13.3699 90.7799 14.1454C89.9833 14.9208 89.3663 15.8481 88.9289 16.927C88.4913 18.006 88.2726 19.1749 88.2726 20.4336C88.2726 21.6924 88.4913 22.8613 88.9289 23.9403C89.3663 25.0193 89.9833 25.9465 90.7799 26.7221C91.5764 27.4975 92.5243 28.1044 93.6236 28.5428ZM97.2245 24.9858C98.4361 24.9858 99.4063 24.5643 100.136 23.7214C100.865 22.8783 101.229 21.7825 101.229 20.4339C101.229 19.0852 100.865 17.9893 100.136 17.1464C99.4063 16.3034 98.4361 15.882 97.2245 15.882C96.013 15.882 95.0371 16.3034 94.2966 17.1464C93.5563 17.9893 93.1861 19.0852 93.1861 20.4339C93.1861 21.7825 93.5563 22.8783 94.2966 23.7214C95.0371 24.5643 96.013 24.9858 97.2245 24.9858ZM111.629 28.5428C112.728 28.981 113.928 29.2002 115.229 29.2002C116.53 29.2002 117.725 28.981 118.813 28.5428C119.901 28.1044 120.843 27.4975 121.64 26.7221C122.437 25.9465 123.059 25.0193 123.508 23.9403C123.957 22.8613 124.18 21.6924 124.18 20.4336C124.18 19.1749 123.957 18.006 123.508 16.927C123.059 15.8481 122.437 14.9208 121.64 14.1454C120.843 13.3699 119.901 12.763 118.813 12.3246C117.725 11.8863 116.53 11.6671 115.229 11.6671C113.928 11.6671 112.728 11.8863 111.629 12.3246C110.529 12.763 109.58 13.3699 108.785 14.1454C107.988 14.9208 107.371 15.8481 106.934 16.927C106.496 18.006 106.277 19.1749 106.277 20.4336C106.277 21.6924 106.496 22.8613 106.934 23.9403C107.371 25.0193 107.988 25.9465 108.785 26.7221C109.58 27.4975 110.529 28.1044 111.629 28.5428ZM115.229 24.9858C116.441 24.9858 117.411 24.5643 118.14 23.7214C118.87 22.8783 119.234 21.7825 119.234 20.4339C119.234 19.0852 118.87 17.9893 118.14 17.1464C117.411 16.3034 116.441 15.882 115.229 15.882C114.018 15.882 113.042 16.3034 112.301 17.1464C111.561 17.9893 111.191 19.0852 111.191 20.4339C111.191 21.7825 111.561 22.8783 112.301 23.7214C113.042 24.5643 114.018 24.9858 115.229 24.9858ZM125.392 5.32834C125.213 5.50817 125.124 5.75541 125.124 6.07012V27.9192C125.124 28.2338 125.213 28.4811 125.392 28.6609C125.572 28.8407 125.819 28.9307 126.133 28.9307H129.061C129.375 28.9307 129.621 28.8407 129.801 28.6609C129.98 28.4811 130.07 28.2338 130.07 27.9192V6.07012C130.07 5.75541 129.98 5.50817 129.801 5.32834C129.621 5.14851 129.375 5.05859 129.061 5.05859H126.133C125.819 5.05859 125.572 5.14851 125.392 5.32834Z" fill="white"/>
</g>
</g>
<defs>
<clipPath id="clip0_163_259">
<rect width="131" height="35" fill="white"/>
</clipPath>
</defs>
</svg>
