<svg width="30" height="24" viewBox="0 0 30 24" fill="none" xmlns="http://www.w3.org/2000/svg">
<path d="M14.9995 23.2498C15.1682 23.2511 15.3432 23.1777 15.4635 23.0495L15.4637 23.0492L28.9726 8.59661L28.9728 8.59637C29.1702 8.38464 29.1995 8.06684 29.044 7.82275L29.0439 7.82258L25.1285 1.68549L25.1284 1.68539C25.0119 1.50294 24.8106 1.39258 24.594 1.39258H14.9465C14.5967 1.39258 14.3126 1.67613 14.3126 2.0265C14.3126 2.37652 14.5966 2.66042 14.9465 2.66042H24.2465L27.7103 8.08999L14.9991 21.6897L2.1679 8.07113L5.27419 2.66042H6.75957C7.10958 2.66042 7.39349 2.37651 7.39349 2.0265C7.39349 1.67615 7.10948 1.39258 6.75957 1.39258H4.9073C4.6804 1.39258 4.47092 1.51381 4.35773 1.71018L4.35751 1.71056L0.834203 7.84802C0.834177 7.84806 0.834151 7.84811 0.834125 7.84815C0.694976 8.09031 0.7312 8.39489 0.922281 8.59816L0.922475 8.59837L14.5392 23.0507C14.5392 23.0508 14.5393 23.0509 14.5394 23.0509C14.6593 23.1784 14.8263 23.2494 14.9995 23.2498ZM14.9995 23.2498C14.9991 23.2498 14.9987 23.2498 14.9982 23.2498L15.0008 22.9998V23.2498C15.0004 23.2498 15 23.2498 14.9995 23.2498Z" fill="#10B981" stroke="#10B981" stroke-width="0.5"/>
<path d="M11.2942 1.76784C11.1514 1.76784 11.0354 1.88381 11.0354 2.02636C11.0354 2.16868 11.1514 2.28461 11.2942 2.28461C11.4365 2.28461 11.5524 2.16868 11.5524 2.02636C11.5524 1.88381 11.4365 1.76784 11.2942 1.76784ZM11.2942 3.05246C10.728 3.05246 10.2676 2.59224 10.2676 2.02636C10.2676 1.46046 10.728 1 11.2942 1C11.8601 1 12.3202 1.46046 12.3202 2.02636C12.3202 2.59224 11.8601 3.05246 11.2942 3.05246Z" fill="#10B981" stroke="#10B981" stroke-width="0.5"/>
<path d="M6.42165 2.47108L6.42161 2.47104C6.17606 2.22209 6.17771 1.82091 6.42734 1.57468L6.42165 2.47108ZM6.42165 2.47108L20.4795 16.717C20.4795 16.7171 20.4795 16.7171 20.4795 16.7171M6.42165 2.47108L20.4795 16.7171M20.4795 16.7171C20.6033 16.8425 20.7675 16.9058 20.9308 16.9058M20.4795 16.7171L20.9308 16.9058M20.9308 16.9058C21.0914 16.9058 21.2526 16.845 21.376 16.7228M20.9308 16.9058L7.32374 1.58058M7.32374 1.58058C7.32375 1.58059 7.32376 1.5806 7.32377 1.58061L21.3818 15.8265C21.6278 16.0755 21.6252 16.4769 21.376 16.7228M7.32374 1.58058C7.0775 1.33101 6.67586 1.32952 6.42739 1.57463L7.32374 1.58058ZM21.376 16.7228C21.376 16.7229 21.3759 16.723 21.3759 16.723L21.2003 16.545M21.376 16.7228C21.3761 16.7228 21.3762 16.7227 21.3762 16.7227L21.2003 16.545M21.2003 16.545C21.3513 16.3961 21.3529 16.1529 21.2039 16.0022L20.9308 16.6558C21.0283 16.6558 21.1256 16.619 21.2003 16.545Z" fill="#10B981" stroke="#10B981" stroke-width="0.5"/>
</svg>
