<svg width="48" height="30" viewBox="0 0 48 30" fill="none" xmlns="http://www.w3.org/2000/svg">
<path fill-rule="evenodd" clip-rule="evenodd" d="M5.66472 21.9573H10.8258C11.474 21.9573 12.0028 22.496 12.0028 23.1542V23.5566C12.0028 24.2153 11.473 24.7535 10.8258 24.7535H5.66472C5.01701 24.7535 4.48779 24.2158 4.48779 23.5566V23.1542C4.48779 22.495 5.01651 21.9573 5.66472 21.9573ZM43.2838 12.0571H33.9035L34.7631 6.8131H46.8833L48 0.0898677C39.8238 0.0689326 31.649 0.0199139 23.4723 0.0199139C22.8261 0.0199139 22.2989 0.556057 22.2989 1.21321V1.61405C22.2989 2.2712 22.8261 2.80684 23.4723 2.80684H24.4614H26.4754C27.1216 2.80684 27.6483 3.34298 27.6483 3.99963V4.40046C27.6483 4.91413 27.3264 5.35377 26.877 5.52125H7.64049C6.99429 5.52125 6.46758 6.05739 6.46758 6.71455V7.11538C6.46758 7.77254 6.99529 8.30868 7.64049 8.30868H28.9593C29.4493 8.45165 29.8098 8.91222 29.8098 9.45552V9.85635C29.8098 10.5135 29.2826 11.0496 28.6364 11.0496H28.3929C28.3522 11.0451 28.3111 11.043 28.2694 11.043L14.1904 11.0772C13.5442 11.0788 13.017 11.6134 13.017 12.2705V12.6714C13.017 13.3285 13.5447 13.8662 14.1904 13.8641L23.0058 13.8386C23.6832 14.1036 23.7289 14.532 23.7289 14.9043V15.2571C23.7289 16.0536 23.1655 16.3661 22.9135 16.3661H9.94916C9.08705 16.3661 8.38361 16.9023 8.38361 17.5594V17.9603C8.38361 18.6174 9.08705 19.1536 9.94916 19.1536H17.2688L25.7232 19.0295C26.3689 19.0203 26.8961 19.5656 26.8961 20.2228V20.6236C26.8961 21.2808 26.3694 21.8164 25.7232 21.8164L22.2873 21.8491H14.1246C13.4784 21.8491 12.9517 22.3852 12.9517 23.0419V23.4427C12.9517 24.0999 13.4789 24.6355 14.1246 24.6355H22.8652C23.4517 24.6947 23.9106 25.1568 23.9106 25.7149V26.08C23.9106 26.678 23.3829 27.138 22.7372 27.1661L21.6753 27.2121H18.2203C17.5741 27.2121 17.0474 27.7482 17.0474 28.4054V28.8062C17.0474 29.4633 17.5746 30 18.2203 29.9995L30.9652 29.9852L32.8385 18.5556H42.2118L43.2843 12.0566L43.2838 12.0571ZM15.1148 0H20.2759C20.9241 0 21.4528 0.538696 21.4528 1.19687V1.59924C21.4528 2.25793 20.9231 2.79611 20.2759 2.79611H15.1148C14.4671 2.79611 13.9379 2.25844 13.9379 1.59924V1.19687C13.9379 0.537675 14.4666 0 15.1148 0ZM1.17693 11.0757H10.4362C11.0844 11.0757 11.6131 11.6144 11.6131 12.2726V12.6749C11.6131 13.3336 11.0834 13.8718 10.4362 13.8718H1.17693C0.529216 13.8718 0 13.3341 0 12.6749V12.2726C0 11.6134 0.528714 11.0757 1.17693 11.0757Z" fill="url(#paint0_linear_191_641)"/>
<defs>
<linearGradient id="paint0_linear_191_641" x1="0" y1="14.9997" x2="48" y2="14.9997" gradientUnits="userSpaceOnUse">
<stop stop-color="#10B981"/>
<stop offset="0.48" stop-color="#33BA49"/>
<stop offset="1" stop-color="#25DFE9"/>
</linearGradient>
</defs>
</svg>
