<svg width="122" height="28" viewBox="0 0 122 28" fill="none" xmlns="http://www.w3.org/2000/svg">
<path d="M32.1434 13.9679V13.9131C32.1434 8.54005 36.3481 4.09912 42.2124 4.09912C48.1322 4.09912 52.2262 8.54006 52.2262 13.8582V13.9131C52.2262 19.286 48.0215 23.7269 42.1572 23.7269C36.2927 23.7269 32.1434 19.286 32.1434 13.9679ZM48.7407 13.9679V13.9131C48.7407 10.2397 46.0299 7.16941 42.2124 7.16941C38.3951 7.16941 35.7395 10.1848 35.7395 13.8582V13.9131C35.7395 17.5863 38.4504 20.6567 42.2678 20.6567C46.0851 20.6567 48.7407 17.6413 48.7407 13.9679ZM57.2054 5.96323V21.9176C57.2054 22.8497 57.9246 23.5625 58.8651 23.5625C59.8057 23.5625 60.5249 22.8497 60.5249 21.9176V10.5138L65.1721 17.4219C65.5594 17.9702 65.9466 18.299 66.5553 18.299C67.1637 18.299 67.6064 17.9702 67.9936 17.4219L72.6962 10.459V21.8628C72.6962 22.7401 73.4707 23.5076 74.3559 23.5076C75.2964 23.5076 76.071 22.7949 76.071 21.8628V5.96323C76.071 5.03118 75.3518 4.26361 74.3559 4.26361H74.024C73.36 4.26361 72.8621 4.53773 72.4749 5.14083L66.6104 14.1871L60.8568 5.19565C60.5249 4.70222 60.0269 4.31843 59.3076 4.31843H58.9757C57.98 4.26361 57.2054 5.03118 57.2054 5.96323ZM80.9395 21.2598L88.0764 5.52462C88.4636 4.70222 89.1276 4.15396 90.1234 4.15396H90.2893C91.2299 4.15396 91.8937 4.64739 92.2811 5.52462L99.4178 21.2598C99.5285 21.479 99.5839 21.7532 99.5839 21.9724C99.5839 22.8497 98.92 23.5625 97.9795 23.5625C97.205 23.5625 96.6517 23.1239 96.3197 22.4111L94.7706 18.8474H85.4208L83.8163 22.5208C83.5399 23.1786 82.9866 23.5625 82.2673 23.5625C81.3822 23.5625 80.7182 22.9045 80.7182 22.0273C80.7182 21.7532 80.8289 21.479 80.9395 21.2598ZM93.5535 15.832L90.1787 8.15628L86.8039 15.832H93.5535ZM104.231 6.07288C104.231 5.14083 104.95 4.37326 105.946 4.37326H111.423C117.454 4.37326 121.658 8.48523 121.658 13.8034V13.8582C121.658 19.2311 117.454 23.3431 111.423 23.3431H105.946C105.006 23.3431 104.231 22.6305 104.231 21.6434V6.07288ZM111.423 20.3825C115.462 20.3825 118.117 17.696 118.117 13.9679V13.9131C118.117 10.1848 115.462 7.44353 111.423 7.44353H107.606V20.3825H111.423ZM0 22.9045C0 23.7818 0.719217 24.5492 1.65973 24.5492C2.54492 24.5492 3.31946 23.8366 3.31946 22.9045V6.89527L23.6235 23.6172C24.2321 24.1106 24.6193 24.4946 25.4492 24.4946H25.5599C26.5003 24.4946 27.2196 23.7818 27.2196 22.8497V3.77017C27.2196 2.89295 26.5003 2.12538 25.5599 2.12538C24.6746 2.12538 23.9001 2.83813 23.9001 3.77017V19.5601L3.87271 3.05744C3.31946 2.56399 2.87686 2.12538 2.047 2.12538H1.71505C0.719217 2.12538 0 2.89295 0 3.825V22.9045ZM9.62645 13.9131C8.68593 13.9131 7.96671 14.6257 7.96671 15.5578V25.3717C7.96671 26.2489 8.68593 27.0164 9.62645 27.0164C10.5116 27.0164 11.2862 26.3037 11.2862 25.3717V15.503C11.2862 14.6257 10.567 13.9131 9.62645 13.9131ZM17.6485 20.4373C16.708 20.4373 15.9887 21.1501 15.9887 22.0821V25.3717C15.9887 26.2489 16.708 27.0164 17.6485 27.0164C18.5337 27.0164 19.3082 26.3037 19.3082 25.3717V22.0821C19.2529 21.1501 18.5337 20.4373 17.6485 20.4373ZM17.6485 0.0419922C16.708 0.0419922 15.9887 0.754725 15.9887 1.68679V10.9525C15.9887 11.8297 16.708 12.5972 17.6485 12.5972C18.5337 12.5972 19.3082 11.8844 19.3082 10.9525V1.68679C19.2529 0.754725 18.5337 0.0419922 17.6485 0.0419922ZM9.62645 0.0419922C8.68593 0.0419922 7.96671 0.754725 7.96671 1.68679V4.4281C7.96671 5.3053 8.68593 6.07288 9.62645 6.07288C10.5116 6.07288 11.2862 5.36013 11.2862 4.4281V1.68679C11.2862 0.754725 10.567 0.0419922 9.62645 0.0419922Z" fill="white"/>
</svg>
