<svg width="207" height="43" viewBox="0 0 207 43" fill="none" xmlns="http://www.w3.org/2000/svg">
<path d="M57.248 22.1283C57.2196 22.214 57.1626 22.3567 57.0772 22.5565C56.9917 22.7278 56.9064 22.9563 56.7926 23.1848C56.6787 23.4131 56.5933 23.6701 56.451 23.9271C56.337 24.1841 56.2233 24.4411 56.1093 24.7266C56.0809 24.8122 56.024 24.8979 55.9956 24.9549C55.967 25.0121 55.9101 25.0407 55.8247 25.0692C55.7393 25.0977 55.6254 25.0977 55.5116 25.0977C55.3693 25.0977 55.17 25.0977 54.9423 25.1262L53.462 25.1549L53.1775 28.4384H58.6427V28.8666C58.6143 28.8666 58.5574 28.9809 58.472 29.1522C58.3866 29.3234 58.2443 29.5234 58.102 29.7804C57.9596 30.0087 57.8173 30.2657 57.6466 30.5227C57.5042 30.7797 57.3619 30.9795 57.248 31.1223C57.191 31.2365 57.1057 31.3508 56.9917 31.4363C56.9064 31.522 56.7926 31.5791 56.6787 31.6078C56.5649 31.6363 56.451 31.6648 56.3086 31.6648C56.1663 31.6648 56.024 31.6648 55.8816 31.6648C55.2554 31.6648 54.5723 31.6648 53.889 31.6363C53.2059 31.6078 52.4943 31.5791 51.8112 31.522C51.1279 31.4935 50.4448 31.4363 49.79 31.3793C49.1353 31.3222 48.5092 31.265 47.9682 31.208C47.9113 31.208 47.8829 31.1795 47.8259 31.1223C47.7975 31.0652 47.769 31.008 47.769 30.951C47.7405 30.951 47.769 30.8938 47.8259 30.7797C47.8829 30.6655 47.9968 30.4942 48.1106 30.3228C48.2245 30.123 48.3668 29.9232 48.5092 29.6662C48.6515 29.4092 48.7938 29.1807 48.9361 28.9237L49.1069 26.5253C49.1353 26.1257 49.1638 25.8115 49.1638 25.6117C49.1923 25.4117 49.1923 25.2976 49.1923 25.2976C48.7653 25.2976 48.4522 25.269 48.2245 25.2405C48.0252 25.2119 47.9113 25.1262 47.9113 25.0121C47.9113 24.9549 47.9682 24.8407 48.0536 24.6979C48.1675 24.5552 48.2815 24.3554 48.4238 24.1556C48.5661 23.9556 48.7369 23.7271 48.9076 23.5273C49.0785 23.2989 49.2208 23.0991 49.3631 22.9278L49.6192 19.3016H49.5908C49.4485 19.3016 49.3062 19.3016 49.1638 19.3301C49.0499 19.3301 48.9076 19.3301 48.8222 19.3301C48.4806 19.3301 48.2245 19.3016 48.0822 19.2731C47.9398 19.2445 47.8545 19.1588 47.8545 19.0446C47.8545 18.9875 47.8829 18.9018 47.9682 18.7305C48.0536 18.5878 48.1675 18.3878 48.2815 18.188C48.3952 17.9882 48.5376 17.7597 48.6799 17.5599C48.8222 17.3315 48.9361 17.1317 49.0499 16.9317L49.6762 15.8467H54.1453L59.4113 15.4756C59.4113 15.4756 59.4398 15.4756 59.4683 15.4756C59.4967 15.4756 59.5253 15.4756 59.5821 15.5041C59.6106 15.5326 59.6391 15.5612 59.696 15.5898C59.7244 15.6183 59.753 15.7039 59.753 15.7611L59.5821 16.3036C59.5253 16.4464 59.4683 16.6177 59.4113 16.7889C59.3544 16.9602 59.269 17.1317 59.1836 17.3315L58.7282 18.5593C58.6713 18.6735 58.6143 18.7591 58.5574 18.8448C58.5004 18.9303 58.3581 18.9303 58.1589 18.959C57.618 18.959 57.0203 18.9875 56.337 19.0161C55.6824 19.0446 54.9139 19.0731 54.0599 19.1018C54.0313 19.1873 54.0313 19.2731 54.0313 19.3301C54.0313 19.3873 54.0314 19.5014 54.0029 19.6728L53.946 20.1581C53.9176 20.3866 53.9176 20.6436 53.889 20.9005C53.8606 21.1575 53.8322 21.5002 53.7752 21.8713C54.1453 21.8713 54.4869 21.8427 54.8284 21.8427C55.17 21.8427 55.4831 21.8142 55.7677 21.8142C56.0524 21.8142 56.3086 21.7857 56.5079 21.7857C56.7071 21.7857 56.878 21.7857 56.9633 21.7857C57.0203 21.7857 57.0772 21.8142 57.1626 21.8427C57.2196 21.8713 57.2764 21.957 57.2764 22.0997C57.3049 22.014 57.2764 22.0712 57.248 22.1283Z" fill="white"/>
<path d="M60.8002 21.9573C60.8856 20.9865 60.9425 20.0157 60.9993 19.045C61.0563 18.1028 61.1133 17.1035 61.1702 16.1041C61.1986 15.8757 61.1986 15.7044 61.2272 15.6187C61.2556 15.5331 61.341 15.4759 61.4549 15.4474C62.1096 15.3331 62.7927 15.1904 63.4474 15.0761C64.102 14.9621 64.7853 14.7906 65.44 14.5908C65.4684 14.5908 65.4969 14.5908 65.5253 14.5908C65.6107 14.5908 65.6393 14.6193 65.6393 14.7051L64.2444 29.9805V30.1519C64.2444 30.209 64.216 30.266 64.159 30.2947C64.102 30.3232 63.9883 30.3803 63.8175 30.4375L61.0279 31.4653C60.9425 31.4938 60.857 31.551 60.7147 31.5795C60.6009 31.6081 60.4586 31.6366 60.3446 31.6366C60.2309 31.6366 60.1455 31.6081 60.0885 31.551C60.0032 31.4938 59.9746 31.4083 59.9746 31.294V31.2368C60.0316 30.523 60.0885 29.8092 60.1455 29.124C60.2023 28.4387 60.2593 27.7249 60.3162 26.9826C60.3732 26.2402 60.4302 25.4692 60.5155 24.6412C60.6293 23.8418 60.7147 22.9566 60.8002 21.9573Z" fill="white"/>
<path d="M73.0423 19.0752C73.7255 19.0752 74.3232 19.1894 74.8926 19.4464C75.4333 19.7033 75.9173 20.0175 76.3159 20.4171C76.7143 20.8168 77.0274 21.2738 77.2267 21.7591C77.4259 22.2444 77.5399 22.7584 77.5399 23.2439C77.5399 23.6722 77.3975 24.129 77.1413 24.5858C76.885 25.0426 76.4866 25.4423 76.0026 25.7851C75.5188 26.1561 74.921 26.4417 74.2379 26.6416C73.5546 26.8414 72.8146 26.9842 71.9891 26.9842C71.5621 26.9842 71.1066 26.9557 70.6512 26.8699C70.6796 27.1841 70.7651 27.441 70.9074 27.6695C71.0498 27.8979 71.2489 28.0692 71.4766 28.212C71.7045 28.3547 71.9606 28.469 72.2452 28.526C72.5299 28.5832 72.843 28.6403 73.1276 28.6403C73.4692 28.6403 73.8109 28.6117 74.1239 28.5545C74.4372 28.4975 74.7502 28.4118 75.0349 28.3262C75.3195 28.2405 75.6042 28.1263 75.8889 27.9835C76.145 27.8694 76.4012 27.7265 76.6573 27.6124C76.7143 27.6124 76.7713 27.5837 76.8282 27.5837C76.885 27.5837 76.9136 27.5552 76.9705 27.5552C76.9705 27.7837 76.9705 28.0122 76.9705 28.212C76.9705 28.4118 76.9705 28.6688 76.9705 28.9543C76.9705 29.2398 76.9705 29.5825 76.942 29.9251C76.9705 29.9536 76.9705 30.0108 76.9705 30.0393C76.9705 30.0679 76.9705 30.0964 76.9705 30.125C76.9705 30.2106 76.885 30.2963 76.7428 30.4106C76.6005 30.4961 76.3727 30.6104 76.1166 30.7246C75.8603 30.8388 75.5756 30.9244 75.2626 31.0387C74.9495 31.1244 74.6079 31.2385 74.2663 31.3242C73.9246 31.4099 73.6116 31.4669 73.2985 31.5241C72.9853 31.5812 72.7006 31.5812 72.4729 31.5812C71.7045 31.5812 70.9643 31.4384 70.2242 31.1814C69.5126 30.9244 68.8579 30.5247 68.3171 30.0393C67.7478 29.5539 67.3208 28.9258 66.9792 28.212C66.6375 27.4982 66.4668 26.6987 66.4668 25.8136C66.4668 24.8713 66.6375 24.0147 66.9507 23.1867C67.2638 22.3587 67.7192 21.6449 68.2885 21.0453C68.8579 20.4457 69.5695 19.9603 70.3665 19.6177C71.192 19.2465 72.0745 19.0752 73.0423 19.0752ZM72.8999 21.9304C72.6153 21.9304 72.3306 21.9876 72.1029 22.1303C71.8468 22.2444 71.6475 22.4444 71.4198 22.6729C71.2205 22.9012 71.0498 23.1867 70.8789 23.5008C70.7082 23.8149 70.6228 24.186 70.5089 24.5858C71.2489 24.4716 71.8468 24.3288 72.3306 24.186C72.8146 24.0433 73.2131 23.9005 73.4978 23.7578C73.7823 23.615 73.9816 23.4722 74.1239 23.3295C74.2663 23.1867 74.2948 23.044 74.2948 22.9012C74.2948 22.787 74.2379 22.6442 74.1525 22.5301C74.067 22.4159 73.9246 22.3302 73.7823 22.2444C73.64 22.1589 73.4977 22.1017 73.3269 22.0446C73.1846 21.9589 73.0423 21.9304 72.8999 21.9304Z" fill="white"/>
<path d="M78.6504 25.7851C78.6504 24.8428 78.8211 23.9862 79.1628 23.1582C79.5042 22.3302 79.9882 21.6164 80.5859 21.0168C81.1838 20.4171 81.9238 19.9318 82.7493 19.5892C83.5749 19.2465 84.4858 19.0752 85.4536 19.0752C86.1082 19.0752 86.6776 19.1322 87.1615 19.2465C87.6169 19.3607 88.0154 19.475 88.3 19.6177C88.5847 19.7605 88.8125 19.8747 88.9547 19.9888C89.097 20.103 89.154 20.1602 89.154 20.1602C89.154 20.1888 89.1256 20.3315 89.097 20.5313C89.0686 20.7313 89.0402 20.9596 88.9833 21.2166C88.9548 21.4736 88.8979 21.7306 88.8693 22.0161C88.8409 22.3016 88.8125 22.5301 88.8125 22.7299C88.8125 22.7584 88.8125 22.8156 88.784 22.8441C88.7556 22.8727 88.6986 22.9012 88.6132 22.9012C88.5279 22.9012 88.4139 22.8727 88.2432 22.8156C88.0723 22.7584 87.873 22.7014 87.6453 22.6157C87.4176 22.5301 87.133 22.4729 86.8199 22.4159C86.5068 22.3587 86.1652 22.3302 85.7952 22.3302C85.3396 22.3302 84.9126 22.4159 84.5142 22.5871C84.1442 22.7584 83.8025 22.9869 83.5463 23.2724C83.2902 23.5579 83.0625 23.929 82.9202 24.3288C82.7778 24.7285 82.6925 25.1854 82.6925 25.6423C82.6925 26.1276 82.7778 26.5559 82.9202 26.8986C83.0625 27.2412 83.2902 27.5267 83.5463 27.7552C83.8025 27.9835 84.0872 28.1263 84.4288 28.2405C84.7703 28.3262 85.1119 28.3833 85.482 28.3833C85.909 28.3833 86.3359 28.3262 86.7629 28.212C87.1899 28.0977 87.6169 27.9265 87.9869 27.7265C88.0154 27.7265 88.0154 27.7265 88.0723 27.7265C88.1009 27.7265 88.1293 27.7552 88.1577 27.7837C88.1862 27.8122 88.1862 27.8979 88.1862 27.9835C88.1862 28.212 88.1862 28.4975 88.1862 28.8115C88.1862 29.1256 88.1862 29.4398 88.1862 29.7538C88.1862 30.0393 88.1862 30.2963 88.1577 30.4961C88.1577 30.6961 88.1293 30.8102 88.1293 30.8102C87.873 30.9816 87.5885 31.1244 87.3038 31.2385C87.0192 31.3527 86.706 31.4384 86.3929 31.4955C86.0798 31.5526 85.7666 31.6097 85.4251 31.6097C85.1119 31.6382 84.7989 31.6382 84.4857 31.6382C83.6602 31.6382 82.8916 31.4955 82.1515 31.2099C81.4399 30.9244 80.8138 30.5533 80.2728 30.0393C79.7321 29.5253 79.3335 28.9258 79.0204 28.212C78.7927 27.441 78.6504 26.6701 78.6504 25.7851Z" fill="white"/>
<path d="M96.098 22.7556C95.9841 23.4979 95.8987 24.2404 95.8134 24.9827C95.7278 25.725 95.671 26.4388 95.6425 27.067C95.6425 27.3526 95.671 27.5809 95.6994 27.7522C95.728 27.9521 95.8134 28.0949 95.8987 28.1806C95.9841 28.2947 96.0695 28.3519 96.1834 28.4089C96.2972 28.4661 96.4111 28.4661 96.5534 28.4661C96.7811 28.4661 97.0374 28.4375 97.2935 28.3519C97.5497 28.2662 97.8344 28.2091 98.0905 28.0949C98.1759 28.0664 98.2614 28.0378 98.3182 28.0092C98.3751 27.9806 98.4321 27.9806 98.4605 27.9806C98.5175 27.9806 98.5744 28.0092 98.6028 28.0664C98.6314 28.1234 98.6598 28.2376 98.6884 28.4089C98.7168 28.5802 98.7452 28.7802 98.8021 29.0657C98.8591 29.3227 98.9445 29.6652 99.0584 30.0935C99.0584 30.122 99.0584 30.1507 99.0868 30.1792C99.0868 30.2078 99.0868 30.2363 99.0868 30.2363C99.0868 30.322 99.0584 30.4076 98.973 30.4362C98.8875 30.4648 98.7737 30.5218 98.6028 30.579C98.3182 30.6646 98.0051 30.7788 97.692 30.893C97.3788 31.0073 97.0374 31.0928 96.7242 31.1786C96.4111 31.2641 96.098 31.3213 95.8134 31.3784C95.5287 31.4356 95.2724 31.4641 95.0447 31.4641C93.8491 31.4641 92.9953 31.1786 92.4544 30.579C91.9136 29.9793 91.6289 29.0942 91.6289 27.8664C91.6289 27.6666 91.629 27.4381 91.6574 27.2383C91.6858 27.0099 91.6858 26.7815 91.7143 26.553C91.7713 25.8392 91.8566 25.154 91.9136 24.5259C91.9704 23.8977 92.0274 23.2696 92.0843 22.6985H90.9743C90.6041 22.6985 90.3194 22.6699 90.1487 22.6413C89.9779 22.6128 89.8926 22.5558 89.8926 22.4415C89.8926 22.4129 89.921 22.3273 90.0064 22.2131C90.0633 22.0988 90.1771 21.9275 90.291 21.7563C90.4049 21.585 90.5187 21.385 90.661 21.1852C90.775 20.9853 90.9173 20.7855 91.0311 20.6142C91.145 20.4427 91.2588 20.3 91.3443 20.1572C91.4297 20.0431 91.4866 19.9574 91.515 19.9289H92.2836C92.3406 19.3864 92.3974 18.9296 92.426 18.5583C92.4544 18.1871 92.5113 17.8731 92.5113 17.6447C92.5398 17.4163 92.5683 17.2165 92.5683 17.0736C92.5683 16.9308 92.6251 16.8452 92.6251 16.788C92.6537 16.731 92.6821 16.6739 92.7106 16.6739C92.739 16.6453 92.796 16.6453 92.853 16.6168C93.166 16.5597 93.4791 16.5025 93.7923 16.4455C94.077 16.3884 94.3901 16.3312 94.6747 16.2742C94.9594 16.217 95.2724 16.1599 95.5855 16.0742C95.8987 15.9887 96.2118 15.903 96.5534 15.8174C96.5818 15.8174 96.5818 15.8174 96.5818 15.8174H96.6104C96.6957 15.8174 96.7242 15.8459 96.7242 15.903V15.9315C96.6957 16.3312 96.6388 16.8737 96.5534 17.559C96.468 18.2443 96.3827 19.0438 96.2972 19.9289H99.1438C99.2007 19.9289 99.2575 19.9574 99.3145 19.9859C99.3715 20.0145 99.3999 20.1002 99.3999 20.1859C99.3999 20.2144 99.3715 20.3572 99.2861 20.557C99.2007 20.7855 99.0868 21.071 98.9161 21.4135L98.546 22.2701C98.4891 22.3843 98.4321 22.4415 98.4037 22.4986C98.3467 22.5558 98.2328 22.5843 98.0905 22.5843H96.098V22.7556Z" fill="white"/>
<path d="M100.71 26.4662C100.796 25.4954 100.909 24.5246 100.995 23.5538C101.08 22.6117 101.166 21.6124 101.251 20.6131C101.28 20.3846 101.28 20.2133 101.308 20.1276C101.336 20.042 101.422 19.9848 101.536 19.9563C102.133 19.8421 102.76 19.6993 103.443 19.5851C104.098 19.4423 104.752 19.271 105.35 19.0712C105.379 19.0712 105.407 19.0712 105.435 19.0712C105.521 19.0712 105.549 19.0997 105.549 19.1568L104.582 29.5784C104.553 29.8069 104.525 29.9782 104.496 30.0639C104.468 30.1495 104.382 30.2066 104.268 30.2352C103.671 30.4065 103.044 30.6349 102.447 30.8634C101.82 31.0917 101.166 31.3202 100.482 31.5485C100.454 31.5485 100.426 31.5485 100.397 31.5485C100.312 31.5485 100.283 31.52 100.283 31.4344C100.283 31.4344 100.283 31.3202 100.312 31.1489C100.34 30.9775 100.34 30.7205 100.369 30.435C100.397 30.1495 100.426 29.8069 100.454 29.4643C100.482 29.0931 100.511 28.7504 100.539 28.3793C100.568 28.0081 100.596 27.6655 100.625 27.3228C100.653 27.0087 100.682 26.7232 100.71 26.4662ZM101.507 17.929C101.536 17.615 101.536 17.3866 101.564 17.2152C101.564 17.0439 101.593 16.9297 101.593 16.8441C101.593 16.7584 101.593 16.7014 101.593 16.7014C101.593 16.6728 101.593 16.6728 101.593 16.6442C101.593 16.6442 101.593 16.6156 101.593 16.5871C101.593 16.5586 101.593 16.4729 101.621 16.3872C101.621 16.2731 101.65 16.1303 101.65 15.9304C101.678 15.7306 101.678 15.445 101.707 15.1023C101.735 14.874 101.735 14.7027 101.763 14.617C101.792 14.5313 101.877 14.4742 101.991 14.4457C102.589 14.3315 103.215 14.1887 103.898 14.0745C104.582 13.9603 105.208 13.7604 105.806 13.5605C105.834 13.5605 105.862 13.5605 105.891 13.5605C105.919 13.5891 105.948 13.6462 105.976 13.6462L106.005 13.6748L105.777 16.6156C105.749 16.8441 105.72 17.0154 105.692 17.1011C105.663 17.1867 105.578 17.2439 105.464 17.2724C104.866 17.3866 104.24 17.5007 103.642 17.6435C103.016 17.7862 102.361 17.9005 101.678 18.0432C101.65 18.0432 101.621 18.0432 101.593 18.0432C101.536 18.0432 101.507 18.0147 101.507 17.929Z" fill="white"/>
<path d="M112.809 31.5798C111.813 31.5798 110.93 31.4085 110.162 31.0945C109.393 30.7518 108.767 30.3235 108.255 29.781C107.742 29.2385 107.372 28.6104 107.116 27.8966C106.86 27.1828 106.746 26.4404 106.746 25.698C106.746 24.9271 106.86 24.2133 107.116 23.5281C107.372 22.8428 107.714 22.2145 108.169 21.6722C108.625 21.1297 109.166 20.6727 109.792 20.3016C110.418 19.9304 111.101 19.6734 111.87 19.5593C111.984 19.5593 112.041 19.5306 112.041 19.4736C112.041 19.3879 112.041 19.3308 112.012 19.2451C111.984 19.1881 111.984 19.131 111.984 19.0738C111.984 18.9883 112.012 18.9311 112.012 18.9025C112.041 18.874 112.069 18.874 112.098 18.874C113.464 18.874 114.603 19.0168 115.57 19.3308C116.51 19.6449 117.307 20.0731 117.905 20.5871C118.502 21.1297 118.929 21.7577 119.214 22.4715C119.47 23.1853 119.613 23.9849 119.613 24.8129C119.613 25.8693 119.442 26.8115 119.072 27.6681C118.73 28.4961 118.218 29.2099 117.62 29.781C116.994 30.352 116.282 30.809 115.457 31.0945C114.603 31.4085 113.72 31.5798 112.809 31.5798ZM110.817 25.5552C110.817 25.9265 110.845 26.3262 110.93 26.6973C111.016 27.0685 111.158 27.4111 111.329 27.7253C111.528 28.0393 111.756 28.2678 112.069 28.4676C112.382 28.6674 112.752 28.7531 113.208 28.7531C113.521 28.7246 113.834 28.6674 114.062 28.5247C114.318 28.3819 114.517 28.2106 114.688 28.0108C114.859 27.8109 115.001 27.5539 115.143 27.297C115.257 27.04 115.343 26.7545 115.428 26.469C115.485 26.1834 115.542 25.8979 115.57 25.6409C115.599 25.3839 115.599 25.1269 115.599 24.8986C115.599 24.5274 115.542 24.1561 115.428 23.8136C115.314 23.4423 115.143 23.1568 114.944 22.8713C114.745 22.5858 114.46 22.386 114.147 22.2145C113.834 22.0433 113.464 21.9577 113.065 21.9577C112.638 21.9577 112.268 22.0718 111.984 22.3288C111.699 22.5858 111.471 22.8998 111.272 23.2711C111.101 23.6423 110.959 24.0419 110.902 24.4417C110.874 24.8986 110.817 25.2412 110.817 25.5552Z" fill="white"/>
<path d="M129.832 31.406C129.747 31.4345 129.661 31.4632 129.519 31.5202C129.405 31.5773 129.263 31.5773 129.149 31.5773C129.035 31.5773 128.95 31.5487 128.893 31.4917C128.807 31.4345 128.779 31.3489 128.779 31.2347V31.1776C128.807 30.8064 128.864 30.4637 128.893 30.2069C128.921 29.9499 128.95 29.6929 128.978 29.4931C129.007 29.2646 129.035 29.0648 129.035 28.8363C129.064 28.6078 129.064 28.3795 129.092 28.0653C129.12 27.7798 129.149 27.4372 129.206 27.0375C129.234 26.6377 129.291 26.1524 129.348 25.5528C129.377 25.1816 129.405 24.8104 129.434 24.4393C129.462 24.068 129.462 23.7255 129.462 23.3828C129.462 23.1829 129.434 22.983 129.405 22.7832C129.377 22.6119 129.32 22.4405 129.234 22.3264C129.149 22.1836 129.035 22.0979 128.893 22.0122C128.75 21.9552 128.58 21.8981 128.352 21.8981C128.181 21.8981 127.953 21.9266 127.669 22.0122C127.384 22.0979 127.099 22.2121 126.815 22.3549C126.53 22.5262 126.274 22.726 126.046 23.0115C125.818 23.2685 125.705 23.6112 125.676 24.011C125.648 24.5248 125.591 24.9816 125.562 25.3529C125.534 25.7241 125.505 26.0381 125.477 26.2951C125.448 26.5521 125.42 26.7805 125.42 26.9232C125.392 27.0947 125.392 27.2374 125.392 27.3515C125.392 27.3802 125.363 27.4657 125.363 27.58C125.363 27.6942 125.335 27.8655 125.306 28.0368C125.278 28.2081 125.278 28.408 125.249 28.6078C125.221 28.8078 125.221 29.0076 125.192 29.1789C125.164 29.3503 125.164 29.5216 125.164 29.6358C125.164 29.7499 125.135 29.8356 125.135 29.8641C125.135 29.9213 125.135 29.9784 125.135 30.0069C125.135 30.0354 125.135 30.0926 125.135 30.1211C125.135 30.1782 125.107 30.2354 125.05 30.2639C124.993 30.2924 124.879 30.3496 124.68 30.4067L121.862 31.3775C121.776 31.406 121.691 31.4345 121.549 31.4917C121.435 31.5202 121.293 31.5487 121.179 31.5487C121.065 31.5487 120.979 31.5202 120.923 31.4632C120.837 31.406 120.809 31.3204 120.809 31.2062L121.776 20.2706C121.805 20.0421 121.833 19.8708 121.862 19.7851C121.89 19.6995 121.976 19.6423 122.09 19.6138C122.744 19.4996 123.399 19.3568 124.082 19.214C124.765 19.0713 125.42 18.9 126.075 18.7002C126.132 18.7002 126.16 18.7002 126.189 18.7287C126.189 18.7572 126.217 18.7858 126.217 18.8144C126.217 18.843 126.217 18.843 126.217 18.8715C126.217 18.9 126.189 18.9572 126.189 19.0713C126.16 19.1855 126.16 19.3283 126.103 19.5282C126.075 19.728 126.018 20.0136 125.961 20.3848C126.445 20.0993 126.9 19.8708 127.356 19.6995C127.783 19.5282 128.181 19.3855 128.58 19.2998C128.95 19.214 129.32 19.1285 129.661 19.1C130.003 19.0713 130.316 19.0428 130.601 19.0428C131.597 19.0428 132.337 19.3568 132.792 19.9565C133.248 20.5561 133.476 21.4697 133.476 22.6975C133.476 22.8688 133.476 23.0402 133.476 23.24C133.476 23.4113 133.447 23.6112 133.447 23.811L132.935 28.4365C132.906 28.7221 132.878 29.0076 132.878 29.2646C132.878 29.5216 132.878 29.8071 132.878 30.1497C132.878 30.2069 132.878 30.2639 132.878 30.2924C132.878 30.3209 132.878 30.3781 132.878 30.4067C132.878 30.4637 132.849 30.5209 132.792 30.5494C132.736 30.5779 132.622 30.6351 132.422 30.6922L129.832 31.406Z" fill="white"/>
<path d="M136.435 30.8631C136.292 30.8346 136.207 30.7775 136.15 30.6918C136.093 30.6062 136.065 30.5205 136.065 30.4348C136.065 30.4063 136.065 30.4063 136.065 30.4063V30.3778C136.121 29.6069 136.178 28.8074 136.264 27.9508C136.321 27.0943 136.406 26.2377 136.492 25.381C136.577 24.4959 136.634 23.6394 136.719 22.7543C136.805 21.8977 136.862 21.0412 136.947 20.2131C136.919 20.2131 136.833 20.2417 136.719 20.2702C136.577 20.3272 136.435 20.3559 136.264 20.4129C136.093 20.47 135.922 20.5272 135.751 20.5557C135.581 20.5842 135.438 20.6127 135.324 20.6127C135.239 20.6127 135.154 20.5842 135.125 20.4987C135.097 20.4129 135.068 20.3559 135.068 20.2702C135.068 20.2131 135.068 20.1559 135.097 20.0989C135.296 19.5564 135.495 19.0139 135.695 18.5285C135.894 18.0431 136.093 17.5577 136.321 17.0437C136.862 16.7582 137.431 16.5012 138 16.2729C138.57 16.0444 139.167 15.8731 139.765 15.7304C140.363 15.5876 140.961 15.4734 141.53 15.3877C142.128 15.3021 142.697 15.2734 143.238 15.2734C144.006 15.2734 144.747 15.3591 145.429 15.5304C146.113 15.7019 146.711 15.9302 147.222 16.2729C147.735 16.6155 148.135 17.0152 148.419 17.5292C148.703 18.0431 148.874 18.6141 148.874 19.2994C148.874 19.5849 148.817 19.8704 148.674 20.1559C148.561 20.4129 148.39 20.6985 148.19 20.9269C147.992 21.1839 147.763 21.4123 147.508 21.6122C147.251 21.812 147.024 22.0118 146.767 22.1833C147.11 22.4401 147.422 22.6686 147.678 22.8685C147.963 23.0683 148.19 23.2968 148.39 23.4966C148.59 23.7251 148.731 23.9534 148.817 24.2389C148.931 24.5245 148.96 24.8386 148.96 25.2383C148.96 25.838 148.846 26.409 148.646 26.9515C148.447 27.4939 148.162 28.0079 147.792 28.4647C147.422 28.9216 146.995 29.3499 146.483 29.721C145.97 30.0922 145.429 30.4348 144.86 30.6918C144.263 30.9488 143.665 31.1773 143.01 31.32C142.355 31.4628 141.701 31.5484 141.046 31.5484C140.818 31.5484 140.477 31.5198 140.078 31.4628C139.68 31.4056 139.253 31.3486 138.797 31.2914C138.342 31.2343 137.915 31.1486 137.488 31.063C137.089 31.0058 136.719 30.9488 136.435 30.8631ZM141.331 19.1281C141.188 19.9561 141.074 20.8127 140.989 21.6978C140.904 22.5543 140.818 23.4109 140.761 24.2104C140.704 25.0385 140.648 25.8093 140.591 26.5232C140.534 27.2656 140.477 27.9223 140.448 28.4934C140.733 28.4934 141.046 28.4647 141.359 28.4362C141.701 28.4076 142.014 28.3506 142.355 28.2649C142.669 28.1792 143.01 28.0936 143.324 27.9508C143.636 27.8366 143.893 27.6653 144.149 27.4939C144.376 27.3226 144.576 27.0943 144.718 26.8373C144.86 26.5803 144.917 26.2948 144.917 25.9521C144.917 25.7522 144.86 25.581 144.747 25.4097C144.633 25.2383 144.461 25.1242 144.292 25.0099C144.092 24.8957 143.893 24.81 143.665 24.7244C143.436 24.6387 143.209 24.5816 143.01 24.5531C142.783 24.4959 142.583 24.4674 142.412 24.4389C142.242 24.4104 142.099 24.3817 142.014 24.3817C141.9 24.3817 141.843 24.3246 141.815 24.2676C141.786 24.2104 141.786 24.1534 141.786 24.0677C141.786 23.9819 141.843 23.8392 141.957 23.6394C142.071 23.4396 142.213 23.2111 142.412 22.8685L142.868 22.1546C143.067 22.069 143.267 21.9833 143.494 21.8977C143.722 21.7835 143.92 21.6693 144.12 21.5265C144.32 21.3837 144.461 21.241 144.604 21.0697C144.718 20.8984 144.804 20.6985 144.804 20.4987C144.804 19.9276 144.69 19.4707 144.433 19.1566C144.177 18.8426 143.808 18.6998 143.352 18.6998C142.726 18.7569 142.071 18.8711 141.331 19.1281Z" fill="white"/>
<path d="M161.849 29.6968C161.821 29.9251 161.794 30.0964 161.765 30.1821C161.737 30.2678 161.651 30.3249 161.537 30.3534C160.939 30.5247 160.313 30.6961 159.629 30.8674C158.976 31.0387 158.32 31.2671 157.722 31.5526C157.694 31.5526 157.665 31.5526 157.637 31.5526C157.579 31.5526 157.552 31.5526 157.524 31.5241C157.524 31.4955 157.495 31.4669 157.495 31.4384C157.495 31.4384 157.495 31.4099 157.495 31.3527C157.495 31.3242 157.495 31.2385 157.524 31.1529C157.552 31.0672 157.552 30.9244 157.579 30.7531C157.608 30.5819 157.637 30.3534 157.694 30.0679C156.897 30.5819 156.185 30.9816 155.588 31.2099C154.961 31.4384 154.42 31.5812 153.936 31.5812C152.741 31.5812 151.888 31.2957 151.347 30.7246C150.806 30.1536 150.521 29.297 150.521 28.1549C150.521 27.955 150.521 27.7265 150.521 27.5267C150.521 27.2982 150.549 27.0984 150.577 26.8699C150.663 26.0421 150.72 25.2996 150.777 24.7C150.834 24.1005 150.891 23.5865 150.92 23.1582C150.948 22.7299 150.977 22.3872 151.004 22.1303C151.033 21.8733 151.061 21.6449 151.061 21.4736C151.09 21.3023 151.09 21.1595 151.09 21.0168C151.09 20.9026 151.118 20.7883 151.118 20.6741C151.147 20.4457 151.175 20.2743 151.204 20.1888C151.232 20.103 151.318 20.046 151.432 20.0175C151.773 19.9603 152.086 19.9032 152.4 19.846C152.713 19.789 152.997 19.7319 153.282 19.6748C153.567 19.6177 153.879 19.5605 154.193 19.475C154.506 19.3892 154.819 19.3037 155.161 19.218C155.19 19.218 155.19 19.218 155.19 19.218C155.218 19.218 155.218 19.218 155.218 19.218C155.302 19.218 155.331 19.2465 155.331 19.3037V19.3322C155.302 19.5892 155.274 19.789 155.245 20.0175C155.218 20.2458 155.218 20.4457 155.19 20.6741C155.161 20.9026 155.133 21.131 155.133 21.3879C155.104 21.6449 155.075 21.9304 155.047 22.2731C155.018 22.6157 154.961 23.0154 154.933 23.4437C154.876 23.872 154.819 24.386 154.761 24.9855C154.734 25.4138 154.677 25.8421 154.649 26.2704C154.62 26.6987 154.592 27.0984 154.592 27.441C154.592 27.6409 154.62 27.8122 154.62 27.9835C154.649 28.1549 154.706 28.2977 154.761 28.4118C154.847 28.526 154.933 28.6117 155.047 28.6973C155.161 28.7545 155.331 28.783 155.502 28.783C155.645 28.783 155.844 28.7545 156.1 28.6688C156.356 28.5832 156.613 28.469 156.869 28.3262C157.124 28.1549 157.352 27.9265 157.552 27.6695C157.751 27.3839 157.865 27.0414 157.894 26.6131C157.951 25.8992 157.979 25.3281 158.036 24.8428C158.063 24.3575 158.121 23.9577 158.149 23.6435C158.178 23.3295 158.206 23.044 158.235 22.8156C158.263 22.5871 158.263 22.3872 158.292 22.1874C158.32 21.9876 158.32 21.7591 158.349 21.5306C158.377 21.3023 158.377 21.0168 158.377 20.6456C158.406 20.4171 158.435 20.2458 158.463 20.1602C158.492 20.0745 158.576 20.0175 158.69 19.9888C159.345 19.8747 159.999 19.7319 160.683 19.5892C161.365 19.4464 162.021 19.275 162.676 19.0752C162.733 19.0752 162.76 19.0752 162.789 19.1037C162.789 19.1322 162.817 19.1609 162.817 19.1894L161.849 29.6968Z" fill="white"/>
<path d="M176.09 29.9239C176.09 29.9524 176.09 29.9524 176.09 29.9809C176.09 30.0095 176.09 30.0095 176.09 30.0381C176.09 30.0666 176.09 30.0952 176.09 30.1237C176.09 30.1522 176.09 30.1522 176.09 30.1809C176.09 30.2379 176.061 30.295 176.033 30.3236C175.976 30.3522 175.862 30.4092 175.663 30.4664L172.817 31.4085C172.731 31.4372 172.645 31.4657 172.503 31.5228C172.39 31.5513 172.247 31.58 172.133 31.58C172.019 31.58 171.933 31.5513 171.877 31.4942C171.792 31.4372 171.763 31.3515 171.763 31.2087C171.763 31.0945 171.763 30.9802 171.763 30.8947C171.763 30.809 171.763 30.7519 171.763 30.6662C171.763 30.6092 171.763 30.5234 171.792 30.4377C171.792 30.3522 171.82 30.2664 171.82 30.1237C171.279 30.552 170.738 30.8947 170.168 31.1517C169.599 31.4085 169.002 31.5228 168.375 31.5228C167.693 31.5228 167.095 31.3515 166.554 31.0374C166.013 30.7234 165.586 30.2664 165.216 29.7239C164.846 29.1816 164.589 28.5533 164.391 27.8395C164.191 27.1257 164.105 26.4119 164.105 25.6409C164.105 24.6416 164.277 23.7565 164.589 22.9285C164.902 22.1005 165.357 21.4152 165.899 20.8441C166.44 20.2731 167.095 19.8163 167.834 19.5023C168.575 19.1881 169.372 19.0168 170.197 19.0168C170.652 19.0168 171.079 19.131 171.478 19.3595C171.877 19.5878 172.276 19.902 172.645 20.2731C172.674 19.9305 172.702 19.5308 172.731 19.131C172.759 18.7313 172.788 18.303 172.817 17.8747C172.845 17.4464 172.872 17.0181 172.901 16.6184C172.929 16.1901 172.958 15.8189 172.986 15.4763C172.986 15.4193 173.015 15.3621 173.044 15.3336C173.101 15.305 173.215 15.2478 173.413 15.1908L176.403 14.477C176.488 14.4485 176.574 14.4199 176.715 14.3913C176.83 14.3342 176.972 14.3057 177.087 14.3057C177.171 14.3057 177.256 14.3342 177.342 14.3628C177.428 14.3913 177.456 14.477 177.456 14.6198C177.456 14.6198 177.456 14.6768 177.456 14.7055C177.456 14.7625 177.456 14.791 177.456 14.791L176.09 29.9239ZM172.361 24.9271C172.39 24.6988 172.417 24.4703 172.417 24.2133C172.445 23.9563 172.474 23.6995 172.503 23.4425C172.333 23.0142 172.104 22.6715 171.82 22.386C171.535 22.129 171.136 21.9862 170.709 21.9862C170.283 21.9862 169.884 22.1005 169.599 22.3575C169.286 22.6145 169.059 22.9285 168.859 23.2997C168.659 23.6708 168.547 24.0706 168.461 24.4703C168.375 24.8701 168.347 25.2413 168.347 25.5554C168.347 25.9265 168.375 26.3262 168.404 26.6974C168.461 27.0687 168.518 27.4112 168.632 27.7253C168.745 28.0393 168.859 28.2678 169.031 28.4676C169.201 28.6676 169.4 28.7531 169.656 28.7531C170.283 28.7246 170.795 28.5819 171.193 28.3249C171.592 28.068 171.906 27.7538 172.133 27.3542L172.361 24.9271Z" fill="white"/>
<path d="M190.287 29.9239C190.287 29.9524 190.287 29.9524 190.287 29.9809C190.287 30.0095 190.287 30.0095 190.287 30.0381C190.287 30.0666 190.287 30.0952 190.287 30.1237C190.287 30.1522 190.287 30.1522 190.287 30.1809C190.287 30.2379 190.259 30.295 190.23 30.3236C190.173 30.3522 190.059 30.4092 189.86 30.4664L187.014 31.4085C186.928 31.4372 186.843 31.4657 186.701 31.5228C186.587 31.5513 186.444 31.58 186.33 31.58C186.217 31.58 186.132 31.5513 186.075 31.4942C185.989 31.4372 185.96 31.3515 185.96 31.2087C185.96 31.0945 185.96 30.9802 185.96 30.8947C185.96 30.809 185.96 30.7519 185.96 30.6662C185.96 30.6092 185.96 30.5234 185.989 30.4377C185.989 30.3522 186.017 30.2664 186.017 30.1237C185.476 30.552 184.935 30.8947 184.367 31.1517C183.798 31.4085 183.199 31.5228 182.573 31.5228C181.89 31.5228 181.292 31.3515 180.751 31.0374C180.21 30.7234 179.783 30.2664 179.413 29.7239C179.044 29.1816 178.787 28.5533 178.588 27.8395C178.388 27.1257 178.303 26.4119 178.303 25.6409C178.303 24.6416 178.474 23.7565 178.787 22.9285C179.101 22.1005 179.556 21.4152 180.097 20.8441C180.637 20.2731 181.292 19.8163 182.033 19.5023C182.773 19.1881 183.569 19.0168 184.394 19.0168C184.851 19.0168 185.278 19.131 185.676 19.3595C186.075 19.5878 186.473 19.902 186.843 20.2731C186.871 19.9305 186.9 19.5308 186.928 19.131C186.957 18.7313 186.985 18.303 187.014 17.8747C187.042 17.4464 187.071 17.0181 187.1 16.6184C187.128 16.1901 187.157 15.8189 187.185 15.4763C187.185 15.4193 187.212 15.3621 187.241 15.3336C187.298 15.305 187.412 15.2478 187.612 15.1908L190.6 14.477C190.686 14.4485 190.771 14.4199 190.914 14.3913C191.027 14.3342 191.17 14.3057 191.284 14.3057C191.369 14.3057 191.454 14.3342 191.539 14.3628C191.625 14.3913 191.654 14.477 191.654 14.6198C191.654 14.6198 191.654 14.6768 191.654 14.7055C191.654 14.7625 191.654 14.791 191.654 14.791L190.287 29.9239ZM186.587 24.9271C186.616 24.6988 186.644 24.4703 186.644 24.2133C186.673 23.9563 186.701 23.6995 186.73 23.4425C186.558 23.0142 186.33 22.6715 186.046 22.386C185.762 22.129 185.362 21.9862 184.935 21.9862C184.508 21.9862 184.11 22.1005 183.826 22.3575C183.512 22.6145 183.285 22.9285 183.085 23.2997C182.887 23.6708 182.773 24.0706 182.687 24.4703C182.601 24.8701 182.573 25.2413 182.573 25.5554C182.573 25.9265 182.601 26.3262 182.63 26.6974C182.687 27.0687 182.744 27.4112 182.858 27.7253C182.972 28.0393 183.085 28.2678 183.256 28.4676C183.428 28.6676 183.626 28.7531 183.883 28.7531C184.508 28.7246 185.021 28.5819 185.419 28.3249C185.818 28.068 186.132 27.7538 186.359 27.3542L186.587 24.9271Z" fill="white"/>
<path d="M197.122 35.8924C197.093 35.921 197.093 35.9495 197.065 35.9495C197.037 35.978 197.009 35.978 196.98 35.978C196.952 35.978 196.895 35.978 196.895 35.978C196.638 35.8924 196.411 35.8067 196.182 35.7497C195.955 35.6925 195.727 35.6354 195.5 35.5782C195.271 35.5212 195.044 35.4642 194.816 35.4355C194.589 35.3784 194.332 35.3499 194.077 35.2927C194.019 35.2642 193.962 35.2642 193.905 35.2357C193.877 35.2072 193.848 35.15 193.848 35.0644C193.848 35.0359 193.848 34.9787 193.877 34.9216C193.905 34.8359 193.962 34.6646 194.077 34.4076C194.191 34.1506 194.332 33.7796 194.532 33.2941C194.73 32.8088 195.016 32.152 195.386 31.3525C195.271 30.9814 195.159 30.5531 195.016 30.0677C194.873 29.5823 194.73 29.0113 194.589 28.4402C194.446 27.8405 194.275 27.2125 194.105 26.5557C193.934 25.8991 193.762 25.2423 193.621 24.5571C193.45 23.8718 193.28 23.2152 193.109 22.5584C192.937 21.9017 192.767 21.2736 192.625 20.6739C192.568 20.5598 192.539 20.4741 192.539 20.3884C192.539 20.3028 192.539 20.2456 192.539 20.1885C192.539 20.1028 192.596 20.0173 192.71 19.9887C193.251 19.8745 193.848 19.7317 194.446 19.6175C195.044 19.4747 195.614 19.3035 196.154 19.1035C196.182 19.1035 196.211 19.1035 196.239 19.1035C196.325 19.1035 196.382 19.132 196.382 19.2178L197.691 26.4129C197.72 26.3274 197.777 26.1846 197.863 25.9561C197.948 25.7277 198.032 25.4708 198.147 25.1566C198.261 24.8426 198.375 24.5 198.516 24.1288C198.659 23.7575 198.802 23.3579 198.943 22.9867C199.086 22.5869 199.229 22.2157 199.371 21.8161C199.513 21.4163 199.627 21.0736 199.77 20.7311C199.883 20.3884 199.997 20.1028 200.082 19.846C200.168 19.589 200.254 19.389 200.282 19.2748C200.311 19.1892 200.367 19.1607 200.452 19.1607C200.481 19.1607 200.481 19.1607 200.481 19.1607H200.509C201.05 19.3605 201.591 19.5318 202.161 19.6746C202.729 19.8173 203.27 19.9316 203.84 20.0458C203.983 20.0743 204.04 20.16 204.04 20.2743C204.04 20.3598 204.011 20.5026 203.925 20.7025L199.541 30.6674L197.122 35.8924Z" fill="white"/>
<path d="M10.472 22.1862C11.4398 23.928 12.4646 25.7554 12.5784 25.9552C12.7777 26.2979 12.9485 26.5834 13.0908 26.8118C13.1193 26.8689 13.1477 26.8975 13.2047 26.926C13.2616 26.9545 13.2901 26.9832 13.347 26.9832C13.4039 26.9832 13.4609 26.9832 13.5178 26.9545C13.5463 26.9545 13.5747 26.926 13.5747 26.926C13.6032 26.926 13.6032 26.8975 13.6317 26.8975C14.0586 26.6119 14.4571 26.3835 14.8557 26.1837C15.2541 25.9552 15.6527 25.7839 16.0513 25.5841C16.1081 25.5554 16.1935 25.5269 16.222 25.4699C16.279 25.4127 16.3358 25.3556 16.3928 25.2699C16.4213 25.2129 16.4497 25.1272 16.4781 25.0416C16.5067 24.9559 16.5067 24.8702 16.5351 24.7561L19.5524 9.19493C19.5808 8.99506 19.5808 8.8523 19.5524 8.7381C19.4955 8.53823 19.3247 8.39546 19.097 8.39546C18.8693 8.39546 18.5561 8.42402 18.2431 8.45258C17.9014 8.48113 17.5314 8.50968 17.3037 8.53823C17.0475 8.53823 16.6205 8.45258 16.2504 8.39546C16.0227 8.33835 15.795 8.3098 15.6243 8.28125C15.5957 8.28125 15.5957 8.28125 15.5673 8.28125C15.5388 8.28125 15.482 8.28125 15.482 8.28125C15.3111 8.3098 15.1973 8.45258 15.1973 8.59534L15.1403 9.08072C15.1118 9.19493 14.7418 12.9924 14.3717 16.6471C14.1725 18.503 14.0017 20.3018 13.8878 21.3297L11.8099 16.9041C11.7529 16.7614 11.6106 16.6471 11.3829 16.7042C11.326 16.7328 11.269 16.7328 11.2406 16.7614C10.8705 17.0184 10.472 17.2467 10.0735 17.4752L8.82101 18.1033C8.65022 18.189 8.56482 18.3888 8.59328 18.5602C8.62175 18.6458 8.67868 18.7885 8.79255 18.9598C8.84948 19.2168 9.6465 20.6444 10.472 22.1862Z" fill="white"/>
<path d="M23.9439 20.4415C24.5986 21.7549 25.1395 22.8399 25.1965 22.9541C25.3672 23.3252 25.5381 23.6108 25.6519 23.8392C25.6804 23.8963 25.7088 23.9249 25.7658 23.982C25.8226 24.0105 25.8796 24.039 25.9365 24.039C25.9935 24.039 26.0219 24.039 26.0789 24.039C26.1073 24.039 26.1358 24.039 26.1358 24.0105C26.1642 24.0105 26.1642 24.0105 26.1928 23.982C26.6198 23.7535 27.0466 23.5252 27.4452 23.3539C27.8438 23.1825 28.2706 23.0112 28.6692 22.8399C28.7546 22.8114 28.8115 22.7829 28.84 22.7542C28.8969 22.6971 28.9823 22.6401 29.0108 22.5544C29.0392 22.4973 29.0678 22.4116 29.0962 22.3259C29.1246 22.2403 29.1532 22.1546 29.1816 22.0404L33.2806 6.73631C33.3376 6.53644 33.3376 6.39368 33.3376 6.27948C33.309 6.05106 33.1383 5.93685 32.9106 5.9083C32.4266 5.87975 29.8648 5.62277 29.3809 5.53711C29.3523 5.53711 29.2955 5.53711 29.2955 5.53711C29.1246 5.56566 29.0108 5.67987 28.9823 5.85118L28.8969 6.33658C28.8685 6.45079 28.1569 10.5909 27.5306 14.2171C27.2175 15.9873 26.9328 17.6148 26.7905 18.5284L24.4279 13.075C24.3994 12.9322 24.2286 12.7894 24.0009 12.818C23.9439 12.818 23.8871 12.8465 23.8301 12.8751C23.4601 13.1035 23.0331 13.3034 22.6061 13.5032L21.2967 14.0457C21.0974 14.1314 21.0121 14.3027 21.0405 14.5026C21.069 14.6167 21.0974 14.731 21.2114 14.9309C21.3821 15.245 22.8338 18.2144 23.9439 20.4415Z" fill="white"/>
<path d="M40.678 17.5615C40.678 17.3616 40.5926 17.1617 40.4503 17.0475C40.3079 16.9047 40.1372 16.8477 39.9379 16.8477L37.2338 16.8762C36.8636 16.8762 36.5505 17.1902 36.5505 17.59C36.5789 23.529 33.3909 28.5541 27.8687 31.3808C21.407 34.6644 16.7386 34.2076 13.9491 33.2368C10.9602 32.2088 8.56911 30.0674 7.28816 27.2408C7.20277 27.0695 7.06044 26.9267 6.88965 26.8695C6.71886 26.8125 6.54806 26.8125 6.37728 26.8982L3.92925 28.0403C3.75846 28.1258 3.61614 28.2686 3.55921 28.44C3.50228 28.6113 3.50228 28.8396 3.58768 29.0111C4.64089 31.2667 7.9144 35.5495 13.3228 37.4626C14.6892 37.9479 16.0839 38.2334 17.5357 38.3477C21.0369 38.6332 24.7659 37.8051 28.6657 35.9207C35.8389 32.4658 40.6496 25.0708 40.678 17.5615Z" fill="white"/>
</svg>
