<svg width="136" height="33" viewBox="0 0 136 33" fill="none" xmlns="http://www.w3.org/2000/svg">
<path d="M40.5488 26.1803V5.24316H45.5808V13.618H55.9801V5.24316H61.012V26.1803H55.9801V18.308H45.5808V26.1803H40.5488Z" fill="white"/>
<path d="M64.377 19.4776V9.09277H69.0734V18.8076C69.0734 20.0582 69.3753 21.0186 69.9792 21.6885C70.6053 22.3362 71.4776 22.6601 72.5958 22.6601C73.714 22.6601 74.6644 22.2357 75.4472 21.387C76.23 20.5385 76.6212 19.4552 76.6212 18.1377V9.09277H81.3177V26.1775H76.6212V23.8326H76.4536C76.1852 24.3462 75.7715 24.8264 75.2124 25.273C74.0048 26.211 72.6293 26.68 71.0862 26.68C68.9616 26.68 67.3065 26.0657 66.1213 24.8375C64.9583 23.6092 64.377 21.8225 64.377 19.4776Z" fill="white"/>
<path d="M83.166 20.6496H88.0305C88.1867 21.0517 88.4324 21.4201 88.7685 21.7551C89.4836 22.4697 90.4681 22.8272 91.7201 22.8272C93.6214 22.8272 94.5717 22.2688 94.5717 21.1522C94.5717 20.9735 94.5269 20.8171 94.4374 20.6831C94.3479 20.5268 94.1917 20.3928 93.968 20.2812C93.7442 20.1472 93.5319 20.0355 93.3301 19.9462C93.1292 19.8568 92.8275 19.7675 92.4246 19.6782C92.0447 19.5665 91.7314 19.4883 91.4858 19.4436C91.262 19.3991 90.8927 19.3209 90.3785 19.2092C89.8863 19.0975 89.5282 19.0193 89.3045 18.9748C85.7713 18.2154 84.0046 16.4846 84.0046 13.7823C84.0046 12.353 84.642 11.1359 85.9168 10.1308C87.2138 9.1035 88.9808 8.58984 91.2174 8.58984C94.2137 8.58984 96.4617 9.51671 97.9594 11.3703C98.6087 12.1743 99.0448 13.0899 99.2686 14.1173H94.5717C94.4155 13.7823 94.2136 13.5032 93.968 13.2799C93.2748 12.7215 92.3579 12.4423 91.2174 12.4423C90.4118 12.4423 89.8196 12.5763 89.4388 12.8442C89.0588 13.0899 88.8684 13.4026 88.8684 13.7823C88.8684 13.9162 88.8913 14.0502 88.936 14.1844C89.0027 14.2959 89.1036 14.4075 89.2379 14.5192C89.3721 14.6087 89.5063 14.6979 89.6406 14.7872C89.7749 14.8543 89.9644 14.9325 90.211 15.0218C90.4566 15.0888 90.6689 15.1558 90.8479 15.2227C91.0497 15.2897 91.3068 15.3567 91.6192 15.4237C91.9324 15.4908 92.2009 15.5466 92.4246 15.5912C92.6484 15.6359 92.9388 15.703 93.2969 15.7923C93.6548 15.8592 93.9452 15.9151 94.169 15.9598C97.6804 16.7413 99.4361 18.4722 99.4361 21.1522C99.4361 22.6485 98.7429 23.9438 97.3557 25.0381C95.9695 26.1323 94.0908 26.6795 91.7201 26.6795C88.5447 26.6795 86.1962 25.6746 84.6756 23.6646C83.9822 22.749 83.479 21.744 83.166 20.6496Z" fill="white"/>
<path d="M101.463 26.1803V5.24316H106.16V15.4605H108.173L112.701 9.09555H117.9L112.366 16.9678L118.404 26.1803H113.036L108.675 19.4804H106.16V26.1803H101.463Z" fill="white"/>
<path d="M117.887 9.09277H122.751L126.105 22.1576H127.448L131.137 9.09277H136.002L129.125 32.5424H124.261L126.105 26.1775H122.416L117.887 9.09277Z" fill="white"/>
<path d="M10.0344 0.93369C10.0344 0.93369 9.55658 0.45604 8.8399 0.456055C7.91254 0.456055 7.22728 1.07161 6.59465 2.06599C2.72593 8.19792 -0.0241714 21.4484 0.000160179 21.472L15.7683 6.42655L10.0344 0.93369Z" fill="white"/>
<path d="M21.5034 0.93369C21.5034 0.93369 21.9813 0.456055 22.6981 0.456055C23.6253 0.456055 24.3105 1.07161 24.9432 2.06599C28.8119 8.19792 31.562 21.4484 31.5377 21.472L15.7695 6.42655L21.5034 0.93369Z" fill="white"/>
<path d="M15.7694 6.42773L0.00130499 21.4733C-0.118133 22.1898 7.9887 28.7382 12.9584 31.2702C13.7512 31.671 14.8838 31.9738 15.7694 31.9811C16.661 31.9886 17.7944 31.6975 18.5805 31.2702C23.5502 28.7382 31.6569 22.1898 31.5375 21.4733L15.7694 6.42773Z" fill="white"/>
</svg>
