<svg width="117" height="117" viewBox="0 0 117 117" fill="none" xmlns="http://www.w3.org/2000/svg">
<mask id="mask0_163_794" style="mask-type:alpha" maskUnits="userSpaceOnUse" x="0" y="0" width="117" height="117">
<rect width="117" height="117" rx="58.5" fill="#FF0000"/>
</mask>
<g mask="url(#mask0_163_794)">
<rect x="155.271" y="-320.533" width="2" height="522" transform="rotate(30 155.271 -320.533)" fill="#020617"/>
<rect x="163.932" y="-315.533" width="2" height="522" transform="rotate(30 163.932 -315.533)" fill="#020617"/>
<rect x="172.592" y="-310.533" width="2" height="522" transform="rotate(30 172.592 -310.533)" fill="#020617"/>
<rect x="181.252" y="-305.533" width="2" height="522" transform="rotate(30 181.252 -305.533)" fill="#020617"/>
<rect x="189.913" y="-300.533" width="2" height="522" transform="rotate(30 189.913 -300.533)" fill="#020617"/>
<rect x="198.573" y="-295.533" width="2" height="522" transform="rotate(30 198.573 -295.533)" fill="#020617"/>
<rect x="207.233" y="-290.533" width="2" height="522" transform="rotate(30 207.233 -290.533)" fill="#020617"/>
<rect x="215.893" y="-285.533" width="2" height="522" transform="rotate(30 215.893 -285.533)" fill="#020617"/>
<rect x="224.554" y="-280.533" width="2" height="522" transform="rotate(30 224.554 -280.533)" fill="#020617"/>
<rect x="233.214" y="-275.533" width="2" height="522" transform="rotate(30 233.214 -275.533)" fill="#020617"/>
<rect x="241.874" y="-270.533" width="2" height="522" transform="rotate(30 241.874 -270.533)" fill="#020617"/>
<rect x="250.534" y="-265.533" width="2" height="522" transform="rotate(30 250.534 -265.533)" fill="#020617"/>
<rect x="259.194" y="-260.533" width="2" height="522" transform="rotate(30 259.194 -260.533)" fill="#020617"/>
<rect x="267.855" y="-255.533" width="2" height="522" transform="rotate(30 267.855 -255.533)" fill="#020617"/>
<rect x="276.515" y="-250.533" width="2" height="522" transform="rotate(30 276.515 -250.533)" fill="#020617"/>
<rect x="285.175" y="-245.533" width="2" height="522" transform="rotate(30 285.175 -245.533)" fill="#020617"/>
<rect x="293.835" y="-240.533" width="2" height="522" transform="rotate(30 293.835 -240.533)" fill="#020617"/>
<rect x="302.496" y="-235.533" width="2" height="522" transform="rotate(30 302.496 -235.533)" fill="#020617"/>
<rect x="311.156" y="-230.533" width="2" height="522" transform="rotate(30 311.156 -230.533)" fill="#020617"/>
<rect x="319.816" y="-225.533" width="2" height="522" transform="rotate(30 319.816 -225.533)" fill="#020617"/>
<rect x="328.477" y="-220.533" width="2" height="522" transform="rotate(30 328.477 -220.533)" fill="#020617"/>
<rect x="337.137" y="-215.533" width="2" height="522" transform="rotate(30 337.137 -215.533)" fill="#020617"/>
<rect x="345.797" y="-210.533" width="2" height="522" transform="rotate(30 345.797 -210.533)" fill="#020617"/>
</g>
</svg>
