<svg width="34" height="34" viewBox="0 0 34 34" fill="none" xmlns="http://www.w3.org/2000/svg">
<rect width="34" height="34" rx="17" fill="#020617"/>
<path d="M25.1562 20.3438C25.6133 20.3438 26 20.7305 26 21.1875C26 21.6797 25.6133 22.0312 25.1562 22.0312H10.7773L13.3789 24.8438C13.6953 25.1953 13.6953 25.7227 13.3438 26.0391C13.168 26.1797 12.957 26.25 12.7812 26.25C12.5352 26.25 12.3242 26.1797 12.1484 26.0039L8.21094 21.7852C7.89453 21.4688 7.89453 20.9414 8.21094 20.625L12.1484 16.4062C12.4648 16.0547 12.9922 16.0547 13.3438 16.3711C13.6953 16.6875 13.6953 17.2148 13.3789 17.5664L10.7773 20.3438H25.1562ZM8.84375 14.1562C8.35156 14.1562 8 13.8047 8 13.3125C8 12.8555 8.35156 12.4688 8.84375 12.4688H23.1875L20.5859 9.69141C20.2695 9.33984 20.2695 8.8125 20.6211 8.49609C20.7969 8.35547 21.0078 8.25 21.2188 8.25C21.4297 8.25 21.6406 8.35547 21.8164 8.53125L25.7539 12.75C26.0703 13.0664 26.0703 13.5938 25.7539 13.9102L21.8164 18.1289C21.5 18.4805 20.9727 18.4805 20.6211 18.1641C20.2695 17.8477 20.2695 17.3203 20.5859 16.9688L23.1875 14.1562H8.84375Z" fill="white"/>
</svg>
