<svg width="20" height="20" viewBox="0 0 20 20" fill="none" xmlns="http://www.w3.org/2000/svg">
<path d="M18.2031 3.28125C18.9062 3.59375 19.375 4.25781 19.375 5C19.375 15.1562 11.9141 20 9.96094 20C8.00781 20 0.625 15.0781 0.625 5C0.625 4.25781 1.05469 3.59375 1.75781 3.28125L9.25781 0.15625C9.49219 0.078125 9.72656 0.0390625 10 0.0390625C10.2344 0.0390625 10.4688 0.078125 10.7031 0.15625L18.2031 3.28125ZM10 18.125C13.6328 16.6016 17.5 11.7969 17.5 5L10 1.875L2.5 5C2.5 11.6406 6.17188 16.5625 10 18.125ZM7.8125 9.64844L8.98438 10.8203L12.0703 7.1875C12.2656 6.95312 12.5391 6.875 12.8125 6.875C13.5156 6.875 13.75 7.5 13.75 7.8125C13.75 8.00781 13.6719 8.24219 13.5156 8.39844L9.76562 12.7734C9.49219 13.0859 9.14062 13.125 9.0625 13.125C8.78906 13.125 8.55469 13.0469 8.39844 12.8516L6.52344 10.9766C6.32812 10.8203 6.25 10.5859 6.25 10.3125C6.25 9.80469 6.64062 9.375 7.1875 9.375C7.42188 9.375 7.65625 9.49219 7.8125 9.64844Z" fill="#10B981"/>
</svg>
