<svg width="23" height="25" viewBox="0 0 23 25" fill="none" xmlns="http://www.w3.org/2000/svg">
<path d="M21.3438 4.4375C22.1875 4.8125 22.75 5.60938 22.75 6.5C22.75 18.6875 13.7969 24.5 11.4531 24.5C9.10938 24.5 0.25 18.5938 0.25 6.5C0.25 5.60938 0.765625 4.8125 1.60938 4.4375L10.6094 0.6875C10.8906 0.59375 11.1719 0.546875 11.5 0.546875C11.7812 0.546875 12.0625 0.59375 12.3438 0.6875L21.3438 4.4375ZM11.5 22.25C15.8594 20.4219 20.5 14.6562 20.5 6.5L11.5 2.75L2.5 6.5C2.5 14.4688 6.90625 20.375 11.5 22.25ZM8.875 12.0781L10.2812 13.4844L13.9844 9.125C14.2188 8.84375 14.5469 8.75 14.875 8.75C15.7188 8.75 16 9.5 16 9.875C16 10.1094 15.9062 10.3906 15.7188 10.5781L11.2188 15.8281C10.8906 16.2031 10.4688 16.25 10.375 16.25C10.0469 16.25 9.76562 16.1562 9.57812 15.9219L7.32812 13.6719C7.09375 13.4844 7 13.2031 7 12.875C7 12.2656 7.46875 11.75 8.125 11.75C8.40625 11.75 8.6875 11.8906 8.875 12.0781Z" fill="#38BDF8"/>
</svg>
