<svg width="35" height="34" viewBox="0 0 35 34" fill="none" xmlns="http://www.w3.org/2000/svg">
<rect width="35" height="34" rx="17" fill="#020617"/>
<path d="M28.5 16.6875C28.5 17.3203 27.9727 17.8125 27.375 17.8125V22.3125C27.9727 22.3125 28.5 22.8398 28.5 23.4375V25.125C28.5 25.7578 27.9727 26.25 27.375 26.25H25.6875C25.0547 26.25 24.5625 25.7578 24.5625 25.125H16.6875C16.6875 25.7578 16.1602 26.25 15.5625 26.25H13.875C13.2422 26.25 12.75 25.7578 12.75 25.125V23.4375C12.75 22.8398 13.2422 22.3125 13.875 22.3125V20.625H15.5625V22.3125C16.1602 22.3125 16.6875 22.8398 16.6875 23.4375H24.5625C24.5625 22.8398 25.0547 22.3125 25.6875 22.3125V17.8125C25.0547 17.8125 24.5625 17.3203 24.5625 16.6875H22.3125V15H24.5625C24.5625 14.4023 25.0547 13.875 25.6875 13.875H27.375C27.9727 13.875 28.5 14.4023 28.5 15V16.6875ZM15.2812 24.8438V23.7188H14.1562V24.8438H15.2812ZM27.0938 24.8438V23.7188H25.9688V24.8438H27.0938ZM27.0938 16.4062V15.2812H25.9688V16.4062H27.0938ZM18.9375 20.625C18.3047 20.625 17.8125 20.1328 17.8125 19.5H9.9375C9.9375 20.1328 9.41016 20.625 8.8125 20.625H7.125C6.49219 20.625 6 20.1328 6 19.5V17.8125C6 17.2148 6.49219 16.6875 7.125 16.6875V12.1875C6.49219 12.1875 6 11.6953 6 11.0625V9.375C6 8.77734 6.49219 8.25 7.125 8.25H8.8125C9.41016 8.25 9.9375 8.77734 9.9375 9.375H17.8125C17.8125 8.77734 18.3047 8.25 18.9375 8.25H20.625C21.2227 8.25 21.75 8.77734 21.75 9.375V11.0625C21.75 11.6953 21.2227 12.1875 20.625 12.1875V16.6875C21.2227 16.6875 21.75 17.2148 21.75 17.8125V19.5C21.75 20.1328 21.2227 20.625 20.625 20.625H18.9375ZM19.2188 9.65625V10.7812H20.3438V9.65625H19.2188ZM19.2188 18.0938V19.2188H20.3438V18.0938H19.2188ZM8.53125 19.2188V18.0938H7.40625V19.2188H8.53125ZM8.53125 10.7812V9.65625H7.40625V10.7812H8.53125ZM8.8125 16.6875C9.41016 16.6875 9.9375 17.2148 9.9375 17.8125H17.8125C17.8125 17.2148 18.3047 16.6875 18.9375 16.6875V12.1875C18.3047 12.1875 17.8125 11.6953 17.8125 11.0625H9.9375C9.9375 11.6953 9.41016 12.1875 8.8125 12.1875V16.6875Z" fill="white"/>
</svg>
